<svg xmlns="http://www.w3.org/2000/svg" width="137" height="40" viewBox="0 0 137 40" fill="none"><g clip-path="url(#clip0)"><path d="M49.3031 38.8324L68.8484 19.544L49.3031 0.835205H0V38.8324H49.3031Z" fill="#007976"></path><path d="M79.1329 0L87.9815 0.108567C89.5676 0.064233 91.1274 0.518142 92.4393 1.40587C93.0106 1.8168 93.4673 2.36557 93.7667 3.00049C94.066 3.6354 94.198 4.33558 94.1503 5.03523C94.1726 5.81467 93.9504 6.5817 93.5146 7.22982C93.0788 7.87794 92.4509 8.375 91.7182 8.65205C92.7529 9.01198 93.6049 9.76065 94.0915 10.7377C94.5822 11.6992 94.7302 12.7979 94.5113 13.8539C93.9516 16.6354 91.7541 18.0023 87.9189 17.9547L78.915 17.8419L79.1329 0ZM82.6925 10.3745L82.6367 14.6143L87.6855 14.674C89.4905 14.6999 90.4039 14.0109 90.4211 12.6163C90.4383 12.318 90.385 12.0198 90.2656 11.7457C90.1461 11.4715 89.9638 11.229 89.7331 11.0375C89.1422 10.6091 88.4202 10.3975 87.6902 10.4388L82.6925 10.3745ZM82.6925 3.70954L82.6505 7.09837L87.3745 7.15892C88.8814 7.17507 89.6418 6.63586 89.6555 5.54132C89.6653 5.30017 89.6207 5.05988 89.525 4.83808C89.4294 4.61628 89.2851 4.41861 89.1027 4.25946C88.6368 3.90713 88.0609 3.72965 87.4765 3.75837L82.6925 3.70954Z" fill="black"></path><path d="M97.3952 3.74321C96.992 3.34558 96.7642 2.80497 96.7617 2.24024C96.7593 1.67551 96.9825 1.13293 97.3822 0.731866C97.4002 0.713912 97.4187 0.695935 97.4371 0.678398C97.8462 0.30962 98.3841 0.114583 98.9358 0.135001C99.4875 0.155418 100.009 0.389683 100.39 0.787679C100.77 1.18568 100.979 1.71587 100.972 2.26501C100.964 2.81415 100.742 3.33869 100.351 3.72654C100.333 3.7445 100.314 3.76243 100.296 3.77955C99.8955 4.13602 99.3755 4.33008 98.8383 4.32336C98.3012 4.31663 97.7862 4.10959 97.3952 3.74321ZM100.474 5.42804L96.9645 5.38253L96.813 17.9546L100.323 18.0001L100.474 5.42804Z" fill="black"></path><path d="M105.132 2.50988L108.718 2.11694L108.669 5.8457L112.077 5.88494L112.032 8.76856H108.718V13.5896C108.708 14.7128 109.166 15.2598 110.127 15.2932C110.658 15.3179 111.187 15.2193 111.672 15.0051L112.465 18.0779C111.607 18.3959 110.703 18.5749 109.787 18.6081C108.301 18.6582 107.126 18.2908 106.274 17.5058C105.422 16.7208 105.014 15.4181 104.941 13.5433V9.18611L102.842 9.15899L102.878 5.8457L105.07 5.87745L105.132 2.50988Z" fill="black"></path><path d="M87.0469 34.2393L82.6927 34.185L82.6235 39.2499L78.4951 39.1998L78.7222 21.2952L87.2064 21.3996C89.4015 21.4274 91.0917 22.0632 92.2771 23.3069C93.4162 24.5732 94.0373 26.218 94.0178 27.9172C93.9984 29.6163 93.3399 31.2466 92.1722 32.4868C90.9666 33.6551 89.2582 34.2393 87.0469 34.2393ZM82.6927 24.998L82.6243 30.4813L87.1712 30.5364C87.5669 30.5676 87.9649 30.5169 88.3399 30.3876C88.715 30.2582 89.0591 30.053 89.3506 29.7848C89.8468 29.2553 90.1255 28.5601 90.1318 27.8362C90.1381 27.1124 89.8715 26.4124 89.3846 25.8745C89.1044 25.5987 88.77 25.3835 88.4024 25.2423C88.0347 25.1011 87.6417 25.037 87.248 25.0539L82.6927 24.998Z" fill="black"></path><path d="M108.112 34.2392L98.7937 34.1223C98.8439 34.447 98.9616 34.7577 99.1394 35.0345C99.3173 35.3114 99.5512 35.5482 99.8263 35.7299C100.532 36.189 101.364 36.4182 102.206 36.3855C103.628 36.4075 104.728 36.0901 105.506 35.4334L107.554 37.755C106.275 38.9826 104.456 39.5811 102.097 39.5505C99.839 39.5254 98.0969 38.8991 96.8712 37.6715C95.6455 36.4439 95.0467 34.803 95.0746 32.7486C95.0464 31.8821 95.1968 31.0191 95.5166 30.2126C95.8364 29.4062 96.3189 28.6734 96.9342 28.0595C98.163 26.8736 99.8057 26.2947 101.862 26.3225C104.101 26.3503 105.807 27.0462 106.979 28.4102C108.152 29.7742 108.529 31.7172 108.112 34.2392ZM98.8315 31.3164L104.838 31.3916C104.83 31.084 104.742 30.7837 104.583 30.5197C104.425 30.2557 104.2 30.0368 103.932 29.8842C103.296 29.513 102.57 29.3237 101.833 29.3372C101.16 29.3117 100.495 29.4909 99.9271 29.8508C99.3958 30.1915 99.0065 30.7121 98.8315 31.3164Z" fill="black"></path><path d="M120.461 28.2368L118.61 30.5124C117.74 29.8845 116.692 29.5495 115.617 29.5562C115.151 29.524 114.685 29.6148 114.265 29.8193C114.122 29.8895 114.002 29.9976 113.917 30.1316C113.831 30.2657 113.785 30.4206 113.783 30.5792C113.783 31.2782 114.403 31.6512 115.642 31.6983C116.154 31.7187 116.664 31.7647 117.17 31.8361C117.667 31.911 118.156 32.037 118.627 32.2119C119.093 32.3667 119.529 32.5997 119.915 32.9008C120.28 33.2248 120.567 33.6257 120.755 34.0741C120.998 34.6262 121.113 35.2256 121.091 35.8279C121.095 36.3957 120.972 36.9574 120.73 37.4718C120.489 37.9862 120.134 38.4403 119.693 38.8008C118.761 39.6192 117.362 40.0187 115.495 39.9992C113.315 39.994 111.21 39.2051 109.568 37.7778L111.205 35.1932C112.435 36.2295 113.989 36.8095 115.6 36.8341C116.075 36.8714 116.55 36.7805 116.977 36.5711C117.135 36.5075 117.27 36.3975 117.364 36.2558C117.458 36.1141 117.506 35.9474 117.502 35.7778C117.502 35.0763 116.797 34.6963 115.361 34.6253C114.743 34.5866 114.13 34.4887 113.531 34.333C112.943 34.1799 112.378 33.9496 111.852 33.6482C111.322 33.3493 110.881 32.9174 110.572 32.3956C110.247 31.8309 110.086 31.1878 110.106 30.5375C110.084 29.9353 110.223 29.3382 110.51 28.8076C110.797 28.277 111.221 27.832 111.739 27.5186C112.911 26.8231 114.262 26.4846 115.626 26.5453C117.392 26.4939 119.116 27.0966 120.461 28.2368Z" fill="black"></path><path d="M133.265 28.5789L133.411 27.1409L136.843 27.1826L136.685 39.6674L133.382 39.6256L133.195 38.0552C132.782 38.6693 132.187 39.1391 131.491 39.3985C130.798 39.6826 130.058 39.8366 129.309 39.8528C128.451 39.8842 127.596 39.7414 126.796 39.433C125.996 39.1247 125.268 38.6573 124.656 38.0594C123.467 36.8773 122.89 35.2698 122.915 33.2488C122.94 31.2279 123.584 29.6366 124.842 28.4712C125.479 27.8919 126.227 27.4468 127.041 27.1627C127.855 26.8786 128.718 26.7614 129.579 26.8181C130.343 26.8169 131.099 26.9804 131.793 27.2974C132.405 27.5627 132.92 28.0104 133.265 28.5789ZM129.707 30.0366C129.269 30.0184 128.832 30.0865 128.42 30.237C128.009 30.3875 127.631 30.6174 127.31 30.9134C126.985 31.227 126.729 31.6049 126.56 32.0228C126.391 32.4406 126.312 32.8892 126.328 33.3394C126.299 33.7874 126.366 34.2364 126.524 34.6567C126.683 35.077 126.929 35.4592 127.247 35.7779C127.562 36.0801 127.934 36.3172 128.342 36.4756C128.75 36.634 129.185 36.7105 129.623 36.7007C130.073 36.723 130.522 36.6509 130.943 36.489C131.363 36.3272 131.744 36.0792 132.061 35.7612C132.362 35.4757 132.603 35.1333 132.769 34.754C132.934 34.3748 133.022 33.9663 133.027 33.5528C133.065 32.6524 132.766 31.7699 132.187 31.0767C131.878 30.7301 131.495 30.4567 131.066 30.2767C130.636 30.0967 130.172 30.0147 129.707 30.0366Z" fill="black"></path></g><defs><clipPath id="clip0"><rect width="136.842" height="40" fill="white"></rect></clipPath></defs></svg>