<svg xmlns="http://www.w3.org/2000/svg" width="142" height="68" viewBox="0 0 142 68" fill="none"><g clip-path="url(#clip0)"><path d="M44.3838 19.7239H33.4242C29.6871 19.7239 26.103 21.2191 23.4604 23.8805C20.8179 26.5418 19.3333 30.1514 19.3333 33.9152C19.3333 37.6789 20.8179 41.2886 23.4604 43.9499C26.103 46.6113 29.6871 48.1065 33.4242 48.1065H45.6833C46.1691 48.1065 46.635 47.9121 46.9786 47.5661C47.3221 47.2201 47.5151 46.7509 47.5151 46.2616V13.6848C47.5184 10.8462 48.4525 8.08828 50.1723 5.83941C51.892 3.59053 54.3011 1.97665 57.0253 1.24851C59.7494 0.520377 62.6361 0.718753 65.2368 1.81282C67.8375 2.90689 70.0065 4.83539 71.407 7.29869L85.0909 31.4081V13.6848C85.0942 10.8462 86.0283 8.08828 87.748 5.83941C89.4678 3.59053 91.8769 1.97665 94.601 1.24851C97.3252 0.520377 100.212 0.718753 102.813 1.81282C105.413 2.90689 107.582 4.83539 108.983 7.29869L122.667 31.4081V0.802246H130.495L132.061 2.37905L133.626 0.802246H141.454V54.1456C141.451 56.9842 140.517 59.7421 138.797 61.991C137.078 64.2399 134.668 65.8537 131.944 66.5819C129.22 67.31 126.334 67.1116 123.733 66.0176C121.132 64.9235 118.963 62.995 117.563 60.5317L103.879 36.4223V54.1456C103.875 56.9842 102.941 59.7421 101.222 61.991C99.5018 64.2399 97.0927 65.8537 94.3686 66.5819C91.6444 67.31 88.7578 67.1116 86.1571 66.0176C83.5564 64.9235 81.3873 62.995 79.9868 60.5317L66.303 36.4223V54.1456C66.303 57.5623 64.9553 60.839 62.5565 63.2549C60.1576 65.6709 56.9041 67.0281 53.5116 67.0281H33.4242C24.7042 67.0281 16.3414 63.5395 10.1754 57.3296C4.00942 51.1197 0.54541 42.6973 0.54541 33.9152C0.54541 25.1331 4.00942 16.7107 10.1754 10.5008C16.3414 4.29092 24.7042 0.802246 33.4242 0.802246H44.3838V8.68628L42.8181 10.2631L44.3838 11.8399V19.7239Z" fill="#CC0000"></path><path fill-rule="evenodd" clip-rule="evenodd" d="M133.626 0.802246V54.1483C133.624 55.2482 133.262 56.3168 132.596 57.1884C131.93 58.06 130.997 58.686 129.942 58.9694C128.886 59.2528 127.768 59.1778 126.759 58.7559C125.751 58.3341 124.908 57.589 124.363 56.6361L124.362 56.6335L124.36 56.631L99.4691 12.7693C99.4685 12.7682 99.4679 12.7671 99.4672 12.766C99.2659 12.4159 98.9558 12.1421 98.5847 11.9869C98.2124 11.8312 97.7996 11.8035 97.4101 11.9081C97.0206 12.0127 96.6763 12.2437 96.4305 12.5654C96.1846 12.8871 96.051 13.2815 96.0503 13.6875V54.1483C96.0484 55.2482 95.6864 56.3168 95.0203 57.1884C94.3542 58.06 93.4212 58.686 92.366 58.9694C91.3107 59.2528 90.1921 59.1778 89.1836 58.7559C88.175 58.3341 87.3327 57.589 86.7873 56.6361L86.7859 56.6335L61.8934 12.7693C61.893 12.7686 61.8926 12.768 61.8923 12.7673C61.6909 12.4166 61.3805 12.1423 61.0089 11.9869C60.6367 11.8312 60.2238 11.8035 59.8344 11.9081C59.4449 12.0127 59.1005 12.2437 58.8547 12.5654C58.6089 12.8871 58.4752 13.2815 58.4745 13.6875V54.1456C58.4745 54.802 58.3462 55.452 58.0967 56.0585C57.8473 56.6649 57.4817 57.2159 57.0209 57.6801C56.56 58.1442 56.0129 58.5124 55.4107 58.7636C54.8086 59.0148 54.1632 59.1441 53.5114 59.1441H33.424C26.7802 59.1441 20.4085 56.4861 15.7107 51.7547C11.0128 47.0234 8.37354 40.6063 8.37354 33.9152C8.37354 27.2241 11.0128 20.807 15.7107 16.0757C20.4085 11.3443 26.7802 8.68628 33.424 8.68628H44.3836V11.8399H33.424C27.6107 11.8399 22.0355 14.1657 17.9248 18.3056C13.8142 22.4455 11.5048 28.0605 11.5048 33.9152C11.5048 39.7699 13.8142 45.3849 17.9248 49.5248C22.0355 53.6647 27.6107 55.9905 33.424 55.9905H53.5114C53.752 55.9905 53.9902 55.9428 54.2124 55.8501C54.4347 55.7573 54.6366 55.6215 54.8067 55.4501C54.9768 55.2788 55.1117 55.0754 55.2038 54.8516C55.2958 54.6278 55.3432 54.3879 55.3432 54.1456V13.6834L55.3432 13.682C55.3451 12.5822 55.7071 11.5136 56.3732 10.642C57.0393 9.77036 57.9723 9.14435 59.0275 8.86095C60.0828 8.57755 61.2014 8.65259 62.2099 9.07445C63.2185 9.49631 64.0608 10.2414 64.6062 11.1943L64.6077 11.1969L89.5001 55.0611C89.5007 55.0621 89.5013 55.063 89.5018 55.064C89.7032 55.4143 90.0133 55.6882 90.3846 55.8435C90.7568 55.9992 91.1697 56.0269 91.5592 55.9223C91.9486 55.8177 92.293 55.5867 92.5388 55.2649C92.7847 54.9432 92.9183 54.5489 92.919 54.1429V13.682C92.9209 12.5822 93.2829 11.5136 93.949 10.642C94.6151 9.77037 95.548 9.14435 96.6033 8.86095C97.6585 8.57755 98.7771 8.65259 99.7857 9.07445C100.794 9.49631 101.637 10.2414 102.182 11.1943L102.183 11.1969L102.185 11.1994L127.076 55.0611C127.076 55.0618 127.077 55.0626 127.077 55.0634C127.279 55.414 127.589 55.6881 127.96 55.8435C128.333 55.9992 128.745 56.0269 129.135 55.9223C129.524 55.8177 129.869 55.5867 130.115 55.2649C130.36 54.9432 130.494 54.5489 130.495 54.1429V0.802246H133.626Z" fill="white"></path></g><defs><clipPath id="clip0"><rect width="140.909" height="66.2259" fill="white" transform="translate(0.54541 0.802246)"></rect></clipPath></defs></svg>