<svg xmlns="http://www.w3.org/2000/svg" width="178" height="48" viewBox="0 0 178 48" fill="none"><g clip-path="url(#clip0)"><path d="M86.1705 13.6268C84.6838 13.6268 83.8685 13.7718 82.6695 14.3519C80.4633 15.3671 78.8327 17.0106 77.3939 19.6693L76.9143 20.491L76.9623 18.9925C77.0103 18.1707 77.0582 16.6722 77.1062 15.6088L77.1541 13.7235H76.8184C76.4348 13.7235 63.7735 16.2855 63.3898 16.4305C63.15 16.5272 63.1021 16.6239 63.1021 17.2523C63.1021 17.8807 63.15 17.9774 63.3898 18.0257C63.5337 18.0741 64.1092 18.1707 64.6847 18.2674C65.7878 18.4608 66.1235 18.6541 66.6031 19.2826C67.4663 20.3944 67.6102 22.4246 67.6102 30.884C67.6102 37.7966 67.4664 41.277 67.1306 42.3405C66.747 43.6456 66.0276 44.3224 64.7806 44.5641C64.397 44.6608 63.8694 44.7575 63.6296 44.8058L63.198 44.9025L63.15 45.7726C63.102 46.401 63.15 46.691 63.2939 46.7877C63.3898 46.8361 67.7061 46.8844 72.8858 46.8844L82.3338 46.8361L82.3817 45.8209C82.3817 45.2892 82.3817 44.8058 82.3338 44.8058C81.6144 44.8058 79.3603 44.5158 78.9766 44.3224C77.9215 43.8873 77.3939 42.9206 77.1541 40.9386C76.9143 38.6667 76.7225 32.9143 76.8184 28.2737C76.9143 23.5364 76.9143 23.5364 77.2021 23.198C77.8735 22.473 79.6001 21.8929 81.1827 21.8929C82.4297 21.8929 83.7246 22.2313 85.0674 22.8597C85.7389 23.1981 86.3144 23.3914 86.4103 23.3914C86.6021 23.3431 89.6715 15.077 89.6715 14.6903C89.6715 14.2069 87.897 13.6268 86.1705 13.6268Z" fill="#33629A"></path><path d="M63.1502 27.9836C62.4788 22.2796 60.0808 18.1224 56.1002 15.7537C51.688 13.1434 45.0216 12.9984 40.2736 15.4154C36.8206 17.1556 34.0389 20.491 32.792 24.3582C31.4971 28.322 31.4971 33.5427 32.792 37.5548C33.6073 40.1652 34.7104 42.0504 36.4369 43.7423C38.4991 45.8209 41.1849 47.1261 44.3022 47.5611C45.4053 47.7061 48.9063 47.7061 50.0573 47.5611C50.5849 47.4644 51.5441 47.2711 52.1196 47.1261C57.7308 45.4825 61.5676 41.132 62.8625 34.9445C63.1982 33.3976 63.3421 29.7238 63.1502 27.9836ZM48.9543 45.0958C45.4532 46.1593 42.9594 42.7755 42.0002 35.7663C41.6645 33.4943 41.7124 27.3069 42.0002 24.7449C42.6716 19.0892 44.3981 16.2371 47.1318 16.2371C48.3788 16.2371 49.0502 16.5272 50.0094 17.4939C52.3114 19.8142 53.3665 24.2615 53.3665 31.2224C53.3665 36.7814 52.791 40.2619 51.592 42.6305C50.9686 43.7423 49.8655 44.8058 48.9543 45.0958Z" fill="#33629A"></path><path d="M17.1092 5.26414H21.1378C25.7419 5.26414 26.5093 5.36081 28.1399 6.18259C30.4899 7.34273 32.2164 9.66303 33.7511 13.7236C34.3746 15.3671 34.3746 15.3671 35.7174 14.932L36.6287 14.642L36.5328 8.69624C36.4848 5.40915 36.3889 2.50878 36.3889 2.26708L36.293 1.73535L18.6919 1.68701C9.0041 1.68701 0.89897 1.68701 0.659174 1.73535L0.227539 1.83203L0.275498 2.8955L0.323456 3.95897L1.66632 4.10399C3.39285 4.29734 4.44796 4.82908 5.07143 5.69919C6.46225 7.72945 6.70205 10.5331 6.70205 23.7298C6.70205 37.7966 6.41429 41.2287 5.07143 42.9689C4.4 43.8874 3.82449 44.1774 2.24183 44.4675C0.179578 44.8542 0.275498 44.8058 0.275498 45.8693C0.275498 46.4494 0.323458 46.7878 0.419377 46.8361C0.659174 46.9328 23.1521 46.9328 23.3919 46.8361C23.6797 46.7394 23.6797 45.0475 23.3919 44.9025C23.248 44.8542 22.5286 44.7092 21.7133 44.5641C20.898 44.4191 20.0347 44.2258 19.747 44.1291C18.2602 43.5007 17.4449 41.7121 17.1572 38.4734C16.9174 36.1531 16.7735 31.8509 16.7735 28.7088V25.8084L18.1643 25.8568C21.0898 25.9534 22.5766 26.0985 23.2001 26.3885C24.5429 26.9686 25.598 28.6121 26.1256 30.9324L26.4133 32.1409L27.4684 32.1892L28.5235 32.2376V16.7689L27.4684 16.8173L26.4133 16.8656L26.1256 18.0741C25.5501 20.4427 24.5909 21.8929 23.1521 22.5697C22.5766 22.8597 22.145 22.9081 20.8021 23.0047C19.8909 23.0531 18.596 23.1014 17.9725 23.1014H16.7735V19.2826C16.7735 15.4638 16.9653 7.29439 17.1092 6.03757V5.26414Z" fill="#33629A"></path><path d="M176.862 32.5277C175.807 30.3524 173.792 28.9022 169.668 27.162C166.311 25.7601 164.584 24.745 163.577 23.6332C162.714 22.7148 162.474 21.9413 162.57 20.5878C162.666 19.331 162.953 18.5576 163.769 17.6875C164.776 16.5756 166.215 16.1889 167.893 16.5756C170.627 17.1557 172.401 19.0893 173.936 23.1498C174.464 24.6 174.56 24.6483 175.519 24.2616L176.142 24.0199V22.328C176.142 21.4096 176.094 19.476 176.046 18.0258L175.95 15.4155L175.471 15.2221C172.929 14.1587 168.133 13.4819 165.016 13.772C161.467 14.1103 158.829 15.2221 156.815 17.3491C154.8 19.4277 153.889 21.893 154.081 24.7934C154.225 27.2103 154.896 28.9022 156.383 30.4491C157.726 31.8509 158.877 32.5277 162.186 33.8328C167.462 35.9114 168.9 37.1683 168.852 39.7303C168.852 41.9055 167.701 43.5007 165.639 44.2258C164.872 44.4675 163.001 44.4675 161.994 44.2258C159.357 43.5491 157.342 41.2288 155.616 36.9749L155.184 35.8631L154.657 35.9114C154.369 35.9114 153.985 36.0081 153.793 36.1048L153.458 36.2982L153.505 38.1834C153.505 39.1985 153.553 41.3738 153.601 42.969L153.697 45.9177L154.273 46.1594C155.472 46.6912 159.117 47.4646 161.371 47.7063C161.659 47.7546 163.193 47.7546 164.824 47.7063C167.606 47.6579 167.845 47.6579 169.236 47.2712C173.409 46.1594 176.094 43.8391 177.293 40.3103C177.677 39.1985 177.725 38.9085 177.773 37.2649C177.725 35.0413 177.533 33.9295 176.862 32.5277Z" fill="#33629A"></path><path d="M144.681 14.9321C141.18 13.1435 135.761 13.2885 131.828 15.2221C128.087 17.059 125.497 20.1527 124.059 24.5033C123.291 26.7752 123.052 28.5638 123.147 31.5125C123.195 33.3494 123.291 34.3162 123.483 35.1863C124.97 41.8572 129.478 46.3527 135.809 47.5129C137.2 47.7546 140.365 47.7546 141.756 47.5129C143.77 47.1745 146.072 46.256 147.559 45.2409C149.333 44.0324 151.156 42.1955 151.156 41.6155C151.156 41.2771 150.532 40.4553 150.292 40.4553C150.197 40.4553 149.669 40.697 149.189 41.0354C147.463 42.1955 145.784 42.6306 143.434 42.6306C140.221 42.6306 138.207 41.8088 136.144 39.7302C135.233 38.8118 134.85 38.3284 134.418 37.4099C133.411 35.428 132.835 33.1077 132.739 30.4974L132.691 29.3856L142.139 29.3372L151.587 29.2889L151.635 28.6605C151.635 28.3221 151.635 27.4036 151.539 26.5819C150.964 20.9262 148.614 16.9623 144.681 14.9321ZM135.185 26.6786L132.787 26.7269V26.1952C132.787 25.9051 132.883 25.1317 132.979 24.5033C133.794 19.331 135.713 16.2372 138.111 16.2372C140.317 16.2372 141.66 19.2826 141.948 24.89L142.043 26.4852L139.837 26.5819C138.59 26.5819 136.48 26.6302 135.185 26.6786Z" fill="#33629A"></path><path d="M110.486 14.352C109.719 14.2069 109.047 14.1586 107.608 14.2069C105.402 14.3036 103.916 14.5937 102.237 15.3671C101.709 15.6088 101.23 15.8505 101.182 15.8505C101.134 15.8505 101.134 12.5151 101.182 8.4062C101.23 2.60546 101.23 0.961914 101.086 0.961914C100.654 0.961914 87.6574 3.47557 87.5135 3.57225C87.4176 3.66893 87.3696 3.95896 87.3696 4.34568C87.4176 5.07077 87.3217 5.02243 88.9043 5.36081C89.3839 5.45749 89.9594 5.69919 90.1513 5.84421C90.6788 6.23092 91.1105 7.05269 91.4462 8.21284C91.686 9.13129 91.7339 9.80804 91.8298 16.0922C91.9258 22.5213 91.9258 29.1438 91.7339 41.2287L91.638 46.256L92.5492 46.4494C93.8921 46.7394 97.7768 47.4162 99.0238 47.5612C100.894 47.7545 105.211 47.7062 106.601 47.5128C112.596 46.5944 117.104 43.1139 119.215 37.7483C119.79 36.3464 120.318 34.1228 120.51 32.5276C120.749 30.6424 120.605 26.8235 120.27 25.2767C119.023 19.4276 115.378 15.3671 110.486 14.352ZM101.374 44.6608C101.23 44.2258 101.038 29.1438 101.086 23.1497L101.134 18.4608L101.997 18.2191C102.573 18.0741 103.244 17.9774 104.012 17.9774C105.115 17.9774 105.211 18.0258 106.122 18.4608C108.328 19.5726 109.815 22.2796 110.534 26.3885C110.774 27.9354 110.822 32.0925 110.582 33.9294C110.006 38.425 108.568 42.0505 106.601 43.7907C105.834 44.4675 105.115 44.8542 104.203 45.0475C103.532 45.1925 103.34 45.1926 102.093 45.0959C101.614 44.9992 101.518 44.9509 101.374 44.6608Z" fill="#33629A"></path></g><defs><clipPath id="clip0"><rect width="177.545" height="46.7805" fill="white" transform="translate(0.227539 0.961914)"></rect></clipPath></defs></svg>