<svg xmlns="http://www.w3.org/2000/svg" width="178" height="42" viewBox="0 0 178 42" fill="none"><g clip-path="url(#clip0)"><path d="M23.0406 9.57375V32.1364C23.0406 34.6743 24.0334 37.1082 25.8005 38.9027C27.5676 40.6973 29.9644 41.7054 32.4634 41.7054C34.9625 41.7054 37.3593 40.6973 39.1264 38.9027C40.8935 37.1082 41.8862 34.6743 41.8862 32.1364V9.57375C41.8862 7.0359 40.8935 4.60199 39.1264 2.80745C37.3593 1.01292 34.9625 0.00476074 32.4634 0.00476074C29.9644 0.00476074 27.5676 1.01292 25.8005 2.80745C24.0334 4.60199 23.0406 7.0359 23.0406 9.57375ZM29.7854 32.1364V9.57375C29.7813 9.21132 29.852 8.85203 29.9928 8.51896C30.1336 8.1859 30.3414 7.88643 30.603 7.63979C30.8645 7.39316 31.174 7.20481 31.5115 7.08685C31.849 6.9689 32.207 6.92394 32.5626 6.95487C32.9043 6.94367 33.2446 7.00375 33.5624 7.1314C33.8803 7.25905 34.169 7.45155 34.4107 7.697C34.6524 7.94246 34.842 8.23565 34.9677 8.55845C35.0934 8.88125 35.1525 9.22681 35.1415 9.57375V32.1364C35.1313 32.8278 34.8563 33.4879 34.3748 33.9768C33.8934 34.4657 33.2434 34.7449 32.5626 34.7553C32.2109 34.7688 31.86 34.7117 31.53 34.5874C31.2 34.463 30.8973 34.2738 30.6394 34.0306C30.3814 33.7873 30.1733 33.4948 30.0267 33.1698C29.8802 32.8448 29.7982 32.4937 29.7854 32.1364ZM96.241 0.508392H77.197V7.35778H83.3466V41.0003H90.0913V7.35778H96.241V0.508392ZM116.078 0.508392V32.1364C116.078 32.831 115.807 33.4971 115.323 33.9883C114.839 34.4794 114.184 34.7553 113.5 34.7553C112.816 34.7553 112.16 34.4794 111.676 33.9883C111.192 33.4971 110.921 32.831 110.921 32.1364V0.508392H103.978V32.1364C103.978 34.701 104.981 37.1605 106.766 38.974C108.552 40.7874 110.974 41.8062 113.5 41.8062C116.025 41.8062 118.447 40.7874 120.233 38.974C122.018 37.1605 123.022 34.701 123.022 32.1364V0.508392H116.078ZM177.773 7.35778V0.508392H161.11V41.0003H177.773V34.151H167.854V23.6754H174.202V16.826H167.854V7.35778H177.773ZM70.849 41.0003H63.7075L58.7481 21.8624C59.9855 21.6137 61.0985 20.9343 61.8953 19.9413C62.692 18.9483 63.1225 17.704 63.1124 16.4231V10.1781C63.1205 9.80548 63.0542 9.43504 62.9175 9.08913C62.7808 8.74322 62.5765 8.42901 62.317 8.16546C62.0575 7.9019 61.7481 7.69446 61.4075 7.55565C61.0668 7.41683 60.702 7.34952 60.3351 7.35778H57.7562V41.0003H51.0115V0.508392H60.3351C62.7991 0.485953 65.1741 1.44252 66.9532 3.1739C68.7322 4.90528 69.7744 7.27429 69.8571 9.77521V16.2217C69.9477 17.8947 69.6544 19.5661 69.0003 21.1043C68.3462 22.6425 67.3493 24.0054 66.088 25.0856L70.849 41.0003ZM146.033 0.508392V22.6682L139.09 0.508392H132.147V41.0003H139.09V21.258L145.438 41.0003H152.976V0.508392H146.033ZM0.227539 1.11275V41.6047H7.36903V24.2798H13.9154V17.4304H7.36903V7.96213H17.6845V1.11275H0.227539Z" fill="black"></path></g><defs><clipPath id="clip0"><rect width="177.545" height="41.4992" fill="white" transform="translate(0.227539 0.107178)"></rect></clipPath></defs></svg>