<svg xmlns="http://www.w3.org/2000/svg" width="194" height="51" viewBox="0 0 194 51" fill="none"><g clip-path="url(#clip0)"><path d="M23.1114 7.2007L23.8942 7.20304L23.9202 6.38395L24.6804 6.38282L23.7291 7.98269C23.8082 8.13351 24.0469 8.05809 24.1883 8.04649L24.2935 7.98269L24.3172 8.67531C23.5481 8.93983 22.7529 8.69974 22.7529 8.69974L22.7348 7.98269C22.8875 8.07666 23.2065 8.15208 23.2924 7.98269L22.3638 6.38282L23.0911 6.38395" fill="#155195"></path><path d="M7.63758 20.3338C7.75408 20.5914 7.84003 20.8629 7.93165 21.1333C8.21443 21.7632 8.47235 22.3979 8.83997 22.9884V23.0591L7.68055 24.0279C8.3253 24.8714 9.03567 25.6824 9.74829 26.4933C11.6622 25.0524 13.5817 23.6126 15.6065 22.4477C16.5759 21.9697 17.8755 22.3352 18.8574 21.8885C18.035 22.5243 17.5996 23.4733 16.8089 24.1346C17.2874 24.7379 17.5023 25.4491 17.8032 26.129C16.9005 26.136 15.913 26.2358 15.1031 25.9527C15.2739 26.375 15.3056 27.563 15.3554 28.1617C14.5206 27.8345 13.6315 27.6385 12.9313 26.9725C12.9686 28.149 12.5094 29.1177 12.1531 30.1236C11.5762 29.5656 10.9563 28.9866 10.5887 28.3125C10.2629 29.1989 9.41685 29.873 8.86486 30.6643L7.68055 32.4648C7.98144 31.6968 8.03686 30.836 8.06061 29.9542C5.761 29.5702 3.17746 28.4692 2.30648 25.9771C2.14133 25.506 2.01237 25.0211 2.01237 24.4804C2.65712 25.7891 4.03713 26.5317 5.3436 26.7335C3.30641 25.4991 1.73637 23.3852 1.60742 20.9998C2.25783 22.2969 3.56998 23.5546 4.87758 24.0964L4.90133 24.0708C2.79175 21.9941 1.48528 19.4602 1.71716 16.5017C2.14699 18.2513 3.19669 19.9127 4.77351 20.9998L4.79049 20.9824C3.04287 18.6411 1.79748 15.6838 2.76687 12.5884C2.85284 15.8288 4.96921 18.5901 7.63758 20.3338Z" fill="#155195"></path><path d="M45.211 21.0253L45.2291 21.045C46.8308 19.9753 47.8794 18.2814 48.3092 16.5272C48.5546 19.5599 47.2052 22.0463 45.1013 24.116H45.168C46.4688 23.58 47.7572 22.3467 48.4144 21.045C48.3148 22.6797 47.6158 24.0522 46.5174 25.2612C45.9406 25.8587 45.315 26.3494 44.659 26.7531C45.2607 26.6951 45.8376 26.4689 46.3704 26.1928C47.0276 25.847 47.7198 25.2101 48.0332 24.5059C47.9902 26.513 46.4937 28.3693 44.7268 29.1304C43.8491 29.5144 42.9351 29.8033 41.9601 29.9541C41.9476 30.7837 42.0279 31.684 42.322 32.4404C41.6038 31.2686 40.6785 30.062 39.7091 28.9355C39.5621 28.7522 39.4874 28.5457 39.415 28.331C39.0146 28.9923 38.4264 29.5701 37.8314 30.149C37.5 29.1176 36.9966 28.1616 37.0521 26.9724C36.3587 27.6581 35.4583 27.8287 34.6235 28.1616C34.6484 27.4562 34.6359 26.651 34.8814 25.9967C33.8995 26.2264 32.8747 26.1406 32.1576 26.129C32.4268 25.4363 32.6904 24.7437 33.1507 24.1346C32.3782 23.4733 31.8997 22.5544 31.126 21.907C31.9913 22.2968 33.2423 22.0323 34.1812 22.385C35.2003 22.9002 36.1505 23.58 37.1143 24.2228L39.579 26.0152L40.2113 26.513L40.2724 26.4932L42.3401 24.0708L41.1626 23.0765C41.6354 22.2272 42.0019 21.3351 42.322 20.415C44.9848 18.6538 47.1746 15.8914 47.2538 12.6324C48.2175 15.722 46.9846 18.6933 45.211 21.0253Z" fill="#155195"></path><path d="M7.41116 19.5288C6.73022 19.139 6.02441 18.4707 5.5957 17.7792C5.70542 16.0053 6.17825 14.3868 6.83997 12.8461C6.49044 15.1433 6.87048 17.4521 7.41116 19.5288Z" fill="#155195"></path><path d="M44.4073 17.8232C43.9345 18.5042 43.2976 19.1829 42.5918 19.5728C43.1008 17.4844 43.5307 15.1941 43.163 12.8911C43.8315 14.4249 44.2795 16.055 44.4073 17.8232Z" fill="#155195"></path><path d="M9.0305 17.2385C9.23297 16.6468 9.44109 16.061 9.8336 15.5516C9.8155 16.1758 9.73635 16.974 10.0666 17.5216C11.079 17.2826 12.2576 17.126 13.33 17.3465C12.7712 17.5344 12.1411 17.9242 11.9013 18.5345C11.7905 18.4324 11.778 18.2514 11.6683 18.1249C11.398 18.1759 11.122 18.1945 10.8641 18.2757L11.6864 19.0751C11.6061 19.5798 11.5575 20.2272 11.7294 20.6982C11.76 19.4905 12.4228 18.3581 13.4782 17.7792C13.9623 17.5286 14.6806 17.3464 15.1884 17.6724C15.4961 17.9172 15.5266 18.3268 15.4407 18.6853C15.4475 18.4962 15.2688 18.3453 15.1217 18.2583C14.3118 17.9984 13.6614 18.6099 13.1648 19.2271C13.0721 19.4034 12.9375 19.5531 12.8888 19.7492C13.2757 20.0068 13.7044 19.8884 14.1523 19.8559C14.5143 19.7724 14.8457 19.6158 15.1466 19.3779C14.5641 20.2771 13.5687 20.6298 12.6988 21.0451L13.0359 21.5429C12.8515 21.6937 12.6377 21.8747 12.4047 21.9513L11.8584 21.2145C11.2566 21.6682 10.6379 22.0522 10.0429 22.5174L10.527 23.2286C10.3743 23.3666 10.1956 23.5372 9.99988 23.6184C8.42307 21.4976 7.27497 18.5658 8.44117 15.8973L8.75451 15.3567C8.76695 16.018 8.79069 16.6724 9.0305 17.2385Z" fill="#155195"></path><path d="M40.359 23.1399L40.0027 23.6179C39.8184 23.5936 39.6475 23.3848 39.4756 23.2722C39.6046 23.0204 39.807 22.8 39.9598 22.561C39.3772 22.0888 38.7392 21.6804 38.1262 21.2395L37.5979 21.9507H37.4939C37.3106 21.8324 37.1262 21.7071 36.9419 21.5852C37.0335 21.4101 37.1692 21.2523 37.2789 21.0898C36.9419 20.8439 36.5064 20.7557 36.1444 20.5225C35.6535 20.2638 35.1196 19.9308 34.8131 19.4029C35.3832 19.8624 36.279 20.063 37.0527 19.8124C37.1262 19.6674 36.9543 19.5224 36.9056 19.3774C36.4385 18.6929 35.7643 18.1058 34.9228 18.2323C34.7588 18.2578 34.623 18.4457 34.5438 18.5768L34.519 18.6848C34.4511 18.491 34.4511 18.0872 34.6049 17.8668C34.8933 17.4967 35.3526 17.4898 35.7824 17.5408C36.8016 17.7416 37.7891 18.6848 38.0832 19.7046C38.1997 20.026 38.1929 20.3972 38.2551 20.7429C38.4463 20.2174 38.3626 19.4145 38.3162 19.0746C38.5798 18.817 38.8738 18.5664 39.1136 18.3019C38.8614 18.2137 38.5798 18.194 38.3162 18.1441C38.2551 18.281 38.1691 18.4098 38.1262 18.5595C37.8309 18.0061 37.2484 17.535 36.6715 17.3691C37.6839 17.1371 38.9168 17.3204 39.936 17.5408C40.2606 17.0002 40.2052 16.2449 40.1509 15.5963C40.5615 16.0732 40.7696 16.6718 40.9721 17.2635C41.1814 16.6846 41.2662 16.0616 41.2232 15.3817C42.8068 17.7415 41.8069 21.0458 40.359 23.1399Z" fill="#155195"></path><path d="M17.8029 15.9425C18.4952 16.7094 19.0359 17.7918 18.563 18.8174C18.4771 18.9497 18.3911 19.0751 18.3051 19.2073C19.2508 19.2642 20.1093 19.1075 20.8151 18.5773C21.2993 18.785 21.8139 18.8929 22.3784 18.9057C22.9801 19.9754 23.4959 21.0822 23.8523 22.2516C23.9733 21.3977 23.8398 20.4847 23.643 19.6795C23.5627 19.408 23.453 19.1191 23.41 18.8604C24.152 18.7676 24.851 18.5657 25.4947 18.2316C25.998 17.9369 26.55 17.6411 26.912 17.1317C25.661 17.8661 24.2866 18.2756 22.7777 18.3638C21.8637 18.3267 20.8762 18.2942 20.3729 17.4333C20.1647 17.0122 20.4781 16.5655 20.5878 16.2882C19.6489 16.5203 18.606 16.3648 17.8029 15.9425ZM21.7653 13.4573C21.6307 13.4121 21.4644 13.4319 21.3423 13.5003C21.1884 13.5827 21.1884 13.759 21.1952 13.9284C21.2563 14.1303 21.4226 14.2881 21.6182 14.3438C21.9678 14.4122 22.4157 14.4191 22.6736 14.1674C22.3671 13.9284 22.1024 13.6012 21.7653 13.4573ZM27.8814 13.3437C28.1755 13.6639 28.2988 14.1233 28.7026 14.3182C28.8564 14.3565 29.0465 14.3565 29.1641 14.23C29.2501 14.0989 29.2682 13.9168 29.2308 13.759C28.9673 13.2926 28.3655 13.1917 27.8814 13.3437ZM23.0107 13.1545C22.7709 13.1047 22.4892 13.1232 22.3365 13.3054C22.6679 13.5444 22.9372 13.9469 23.281 14.1674C23.5016 14.288 23.8138 14.2359 23.9982 14.0804C23.686 13.7846 23.3794 13.368 23.0107 13.1545ZM26.4652 13.1291C26.7706 13.469 26.9493 13.8843 27.2864 14.1929C27.4821 14.3055 27.783 14.3496 27.9854 14.2115C27.7162 13.8774 27.5194 13.5061 27.2502 13.1731C27.0409 13.0292 26.6846 12.9852 26.4652 13.1291ZM24.3172 13.0037C24.0717 12.9225 23.833 13.0292 23.6611 13.1545L24.4393 13.9284C24.6791 14.0989 25.0592 14.1802 25.3295 14.0154C24.9676 13.6894 24.7221 13.2184 24.3172 13.0037ZM25.7899 13.0223C25.5558 12.9225 25.2685 12.9225 25.0784 13.0664C25.4947 13.4005 25.618 14.0108 26.1519 14.1488C26.317 14.1871 26.5195 14.1489 26.636 14.0352C26.2865 13.7266 26.1575 13.2868 25.7899 13.0223ZM26.679 10.8841L26.0048 11.2925C26.0128 11.4665 26.2435 11.5604 26.2944 11.7136C26.3136 11.7727 26.2921 12.0419 26.265 12.0721C26.1688 12.1765 25.877 12.0721 25.7526 12.1348C25.5874 12.1661 25.5139 12.3436 25.5196 12.5002C25.7469 12.5571 26.0354 12.5501 26.213 12.7636C26.4098 12.6824 26.593 12.5628 26.8453 12.6139C26.8995 12.3737 26.912 12.1173 27.0172 11.8969C27.0783 11.7519 27.231 11.7263 27.3543 11.6834C27.0839 11.4305 26.8814 11.1602 26.679 10.8841ZM40.8861 7.13893C40.4936 8.23532 39.341 8.86999 38.2551 8.89551C38.9609 9.80163 39.0955 10.9583 40.0887 11.7449C40.6226 12.1916 41.3408 12.4376 42.0467 12.1986C42.9482 11.9027 43.5737 10.9142 43.7332 10.0151C43.4753 10.2042 43.1258 10.3863 42.782 10.4676C42.1564 10.5813 41.4947 10.5117 41.0343 10.0835C41.0773 9.98956 41.1135 9.90256 41.1814 9.82019C41.592 9.00805 41.4574 7.81185 40.8861 7.13893ZM9.09195 7.09602L8.98791 7.22709C8.44722 7.99514 8.45967 9.27948 8.96868 10.058C8.83408 10.1844 8.67457 10.2471 8.52752 10.3422C7.77305 10.6624 6.87718 10.4362 6.26976 9.95126C6.4168 10.7773 6.88285 11.5941 7.63732 12.028C8.21421 12.3621 9.01166 12.3436 9.558 11.9654C10.7853 11.2553 10.9629 9.87008 11.7298 8.85026C10.6133 8.85026 9.515 8.16572 9.09195 7.09602ZM28.5318 6.59828C28.4515 6.72358 28.3293 6.83034 28.1947 6.88139C27.6472 6.9568 27.0048 6.80599 26.5071 7.01367C26.3295 7.10764 26.1881 7.29673 26.127 7.48584C26.0965 7.68192 26.0908 7.91283 26.213 8.07062C26.6179 8.61823 27.3848 8.37919 28.0047 8.43488C28.0771 8.47316 28.1325 8.54974 28.1325 8.63096C28.1144 8.71797 28.059 8.769 27.9854 8.80728H25.4336C25.2685 9.17738 24.937 9.48023 24.9495 9.9269H24.2131L23.453 10.8145L22.7166 9.9269L21.9746 9.90835L21.9553 9.60555L21.2812 8.35365C21.4282 8.10769 21.5945 7.57287 21.5945 7.57287L21.3852 7.37913L20.5629 8.0265L21.4248 10.3562L22.1024 10.5372V10.3364L22.5876 10.3329L22.5254 11.9851C22.4768 12.2484 22.1884 12.0976 22.0413 12.1986C21.7348 12.3482 21.9067 12.7833 21.8943 13.0223C22.2438 12.6951 22.7969 12.6139 23.2437 12.7833L23.79 11.1845C24.8759 11.2727 26.0229 11.0024 26.8453 10.1914C27.1145 10.739 27.5138 11.2356 27.9854 11.7008L27.9425 11.9654C27.9368 12.2485 27.6789 12.0095 27.5443 12.1174C27.3045 12.1986 27.3543 12.4805 27.2864 12.6754L27.6914 12.9597C27.9617 12.8402 28.3045 12.8459 28.594 12.8459C28.6675 12.4561 28.7772 12.0849 28.8689 11.7008L28.4458 11.1428C28.594 11.0093 28.6788 10.8516 28.7467 10.688C28.8564 10.1984 28.7524 9.70064 28.4277 9.34794C28.7648 9.18899 28.9005 8.83863 28.8938 8.48013C28.7659 7.54617 27.723 7.97896 27.0443 7.88034C26.6993 7.88034 26.6869 7.4093 27.033 7.4093C27.7208 7.35013 28.4877 7.4835 29.1019 7.22709C29.3292 7.08903 29.5125 6.83844 29.5261 6.59828H28.5318ZM22.0605 5.30233L22.1216 5.93115C21.9429 6.20844 21.7099 6.48457 21.6612 6.79202L22.1465 7.44173C22.1646 7.75034 21.9678 8.02068 21.8275 8.28405L22.4406 9.41174H22.9066L23.4699 10.1218L23.9982 9.42916L24.5072 9.39085L25.1146 8.28405C24.98 8.02648 24.8024 7.7933 24.7775 7.48584L25.3046 6.77467C25.1949 6.47882 25.023 6.20846 24.8205 5.94857C24.8386 5.73626 24.8816 5.48449 24.8635 5.30233L24.3172 5.604C23.772 5.40792 23.1521 5.40792 22.6057 5.604L22.0605 5.30233ZM24.9246 3.11889C24.3488 3.45883 24.385 4.10153 24.4031 4.71643H25.5376C25.5263 4.40202 25.575 4.05631 25.4947 3.76626C25.3974 3.51566 25.2074 3.20127 24.9246 3.11889ZM23.7041 1.75334H24.5513L24.5502 0.979429H25.3725V1.76375L26.2118 1.76142L26.213 0.979429H27.0353V3.89854L26.5071 4.39622V6.44631H28.0285C28.1698 6.28969 28.335 6.10752 28.5748 6.14465H30.1143C30.034 6.64934 29.9118 7.15751 29.4582 7.48584C29.3111 7.58678 29.1392 7.63553 28.9741 7.69935C29.3236 7.97663 29.4582 8.42908 29.3349 8.86995C29.2501 9.03818 29.1879 9.21683 29.0159 9.34794C29.3236 9.85726 29.3847 10.6822 29.0159 11.1845C29.7828 11.6695 28.999 12.3622 29.0589 12.9782C29.3473 13.1604 29.6414 13.3866 29.6731 13.759C29.7285 14.1047 29.6177 14.4505 29.3349 14.6651C29.2128 14.7405 29.0781 14.7847 28.9311 14.7963C28.9605 15.062 29.2557 15.3125 29.4831 15.4889C30.06 15.9042 30.992 15.8219 31.587 15.5074C31.9184 15.3125 32.2917 15.0039 32.3913 14.6211C32.4523 14.4006 32.3845 14.1801 32.286 13.998C32.01 13.614 31.544 13.5757 31.1266 13.6708C30.8506 13.7718 30.5746 13.9539 30.4083 14.23C30.2002 13.1859 30.2251 11.8516 31.1888 11.2298C31.6356 10.9838 32.2555 11.0279 32.6853 11.2727C32.8132 11.3481 32.9365 11.4491 33.0462 11.5744C32.9557 10.0661 33.1763 8.52424 34.5008 7.69935C35.3345 7.20858 36.5923 7.29673 37.366 7.87567L37.918 8.35365C38.9474 8.36642 39.8987 7.86873 40.4201 6.94406C40.5807 6.68069 40.6361 6.36507 40.6961 6.05762C41.7515 6.91965 42.2424 8.28409 41.8555 9.60555C41.782 9.71345 41.8069 9.83175 41.9415 9.86423C42.9165 10.0835 43.6902 9.41177 44.4074 8.78179C44.5058 10.3991 43.9289 11.9468 42.4878 12.6754C41.6531 13.085 40.531 12.8912 39.8308 12.31C39.1193 11.7647 38.6906 11.021 38.3162 10.2982C37.9847 9.89558 37.4384 10.0162 36.9418 10.058C36.193 10.1984 35.4453 10.7019 35.089 11.4433C34.9974 11.6637 34.9295 11.89 34.899 12.1348C35.0155 12.122 35.1524 12.0153 35.2802 11.9654C35.9419 11.7078 36.6907 11.9143 37.1997 12.3738C37.6352 12.8204 37.7823 13.5258 37.556 14.1233C37.3411 14.7533 36.7586 15.3891 36.1444 15.6154C36.0618 14.9401 35.6908 14.7209 35.3662 14.6907C34.4579 14.4877 34.0597 15.3891 33.4206 15.9169C32.8007 16.5261 31.6673 17.0168 31.8019 18.0819C31.8449 18.5471 32.053 18.9811 32.4761 19.2514C32.6412 19.3454 32.8188 19.415 33.0032 19.4649C31.8268 19.893 30.1143 20.031 29.12 19.1005C28.8847 19.4927 29.2218 20.161 29.3123 20.3443C29.5758 20.8815 29.9593 21.3664 30.0102 21.9941C29.4706 21.4546 28.7524 21.2272 27.9854 21.3908C27.9854 21.3908 27.5194 21.4592 25.3736 22.7529C24.842 23.0719 24.3748 23.3179 24.3748 23.3179C24.3748 23.3179 24.1859 23.2076 24.1022 23.1647C23.4643 22.718 22.7777 22.392 22.1024 22.0393C21.8083 21.8247 21.7167 21.4593 21.7653 21.1077C21.8513 20.7875 22.1578 20.4974 22.4587 20.3721V20.2457L22.0164 19.422C21.6669 19.3709 21.3355 19.27 20.9871 19.2073C19.839 19.7793 18.1954 19.9626 16.9557 19.4649C17.3606 19.3523 17.8153 19.0576 18.011 18.6237C18.2192 18.1631 18.1886 17.4833 17.864 17.0876C17.2204 16.3451 16.398 15.91 15.7782 15.1002C15.4343 14.7336 14.9196 14.5688 14.4106 14.708C13.9853 14.8299 13.8247 15.3172 13.8586 15.5968C13.0431 15.301 12.3553 14.4122 12.3191 13.5189C12.344 12.9399 12.6189 12.3935 13.1211 12.0907C13.6799 11.782 14.5034 11.7333 15.0418 12.1348C15.0361 11.5059 14.6493 10.9722 14.1765 10.5372C13.5215 10.0522 12.5578 9.80739 11.7728 10.1659C11.2932 10.9838 10.8034 11.9027 9.93807 12.4376C9.22658 12.9028 8.11692 13.0409 7.36811 12.5698C6.01752 11.7774 5.52096 10.3109 5.59562 8.76324C6.08767 9.16582 6.58988 9.60433 7.16903 9.78648C7.4405 9.87117 7.96649 9.96866 8.20856 9.7401C8.07282 9.48137 8.00381 8.86529 8.0072 8.64717C8.01852 7.63548 8.47325 6.65981 9.30577 6.01358C9.34988 6.93709 10.1349 7.85013 10.9686 8.13321C11.3249 8.25852 11.7173 8.3479 12.1098 8.30961C12.7964 7.57985 13.7104 7.18421 14.7477 7.39768C15.5508 7.56127 16.355 8.27828 16.6186 9.08345C16.9003 9.83178 16.9625 10.7321 16.8946 11.5744C17.2939 11.1288 17.8583 10.9583 18.4341 11.0778C19.0969 11.2101 19.4962 11.9468 19.5935 12.5698C19.6738 13.1105 19.6308 13.7022 19.5505 14.23C19.2813 13.8472 18.882 13.5827 18.416 13.607C18.1162 13.6581 17.8097 13.7266 17.631 14.0352C17.4771 14.331 17.5574 14.7464 17.7169 15.0109C18.3911 15.8671 19.5268 16.011 20.5199 15.7905C20.7722 15.7476 20.9746 15.5968 21.2189 15.5341C21.0719 15.8219 21.0233 16.2627 21.2563 16.5261C22.1827 17.4774 23.7595 17.3765 24.9495 17.0876C25.894 16.8544 26.7774 16.4634 27.6235 15.9854C26.998 16.8799 27.7773 17.7675 27.9854 18.604C28.2739 18.1504 28.5997 17.6782 28.7648 17.1503C28.8632 18.0123 29.4514 18.9057 30.3043 19.1447C30.6968 19.2514 31.2002 19.3012 31.6108 19.1829C31.2918 18.7293 31.1086 18.1631 31.2556 17.5656C31.3054 16.8672 32.1085 16.4635 32.139 15.7905C31.4151 16.2697 30.3416 16.4205 29.5001 16.0933C28.9741 15.8613 28.5013 15.3253 28.2807 14.7963C26.7412 16.0307 24.9246 16.6409 22.8636 16.5017C23.0412 16.0307 23.3546 15.6153 23.5378 15.1431L22.7777 15.1176L22.1465 16.3323C21.8999 16.2372 21.6612 16.0109 21.5945 15.7476C21.5379 15.4007 21.6669 15.0863 21.8943 14.8415C21.7653 14.7789 21.6126 14.7788 21.4712 14.7533C21.116 14.6581 20.7473 14.3438 20.6918 13.9539C20.6602 13.4458 20.8943 13.0211 21.3694 13.0223C21.3807 12.8076 21.2925 12.4051 21.3852 12.2241C21.4407 11.9271 21.7528 11.8146 21.9983 11.7449C22.0356 11.7577 22.0605 11.7264 22.0854 11.7008V10.9908L21.0628 10.7391L19.9747 7.87567C19.9747 7.87567 20.7529 7.32688 21.1092 6.9881C20.8762 6.77463 21.1884 6.57972 21.237 6.38364L21.6364 5.75483C21.5821 5.33948 21.6239 4.88698 21.4893 4.5018C21.9259 4.68047 22.3117 5.03786 22.7969 5.0193L23.4281 4.93807V4.39622L22.9066 3.89854V0.979429H23.7041" fill="#155195"></path><path d="M14.9317 22.1011L12.3437 23.8321L9.87665 25.6514H9.83364L8.50342 24.07C8.7353 23.889 8.95023 23.6697 9.20248 23.5293L9.89474 24.374C10.3551 24.0526 10.7974 23.6802 11.2453 23.3356C11.122 23.0769 10.8709 22.8692 10.76 22.5988L11.7295 21.9317L12.2577 22.6244C12.7486 22.3042 13.2508 22.0129 13.735 21.6742L13.5019 21.2843C13.796 21.1463 14.1037 20.9305 14.4295 20.8307" fill="#155195"></path><path d="M36.4825 21.2839L36.2494 21.6934L37.7278 22.6425C37.9054 22.4162 38.0887 22.183 38.273 21.951L39.2232 22.6239V22.6865L38.7391 23.3351C39.1633 23.7075 39.635 24.0521 40.0885 24.3978C40.3589 24.1472 40.5863 23.8444 40.8012 23.5544C41.0466 23.6809 41.2548 23.9025 41.4753 24.0707V24.1345L40.1507 25.6694L36.8625 23.3165L35.0459 22.1273L35.5561 20.85C35.875 20.9625 36.1691 21.14 36.4825 21.2839Z" fill="#155195"></path><path d="M20.0601 26.9721L21.1516 25.1541L22.2047 26.9756" fill="#155195"></path><path d="M29.8813 26.9722L27.7524 26.9907C28.059 26.3677 28.4266 25.776 28.7829 25.1727C29.1811 25.7377 29.5193 26.3735 29.8813 26.9722Z" fill="#155195"></path><path d="M21.704 30.7533C21.471 31.207 21.3907 31.7163 21.342 32.2442C21.5264 32.3394 21.7526 32.2639 21.9314 32.2245L22.0411 32.156L22.0603 32.7849C21.8703 32.6666 21.6237 32.6723 21.3851 32.6781C21.3975 32.9484 21.4473 33.2571 21.428 33.5657H20.8387C20.8274 33.264 20.8455 32.9751 20.8998 32.6967C20.6735 32.6665 20.41 32.6596 20.2256 32.7849L20.2075 32.156C20.4156 32.2511 20.686 32.3452 20.919 32.2442C20.8941 31.7105 20.7471 31.2255 20.5627 30.7533C20.7776 30.4645 21.0242 30.1802 21.1339 29.8472C21.238 30.1802 21.4834 30.4645 21.704 30.7533Z" fill="#155195"></path><path d="M26.5502 36.5291V42.1294C27.8013 41.3056 28.9245 40.1292 29.7513 38.8634C30.2185 38.1279 30.6416 37.347 30.8508 36.5291H26.5502ZM23.3909 36.5291H19.0666C19.7713 38.6998 21.4092 40.7963 23.3909 42.1038V36.5291ZM30.3226 24.6127H19.6118V25.0211L20.7508 25.0223L19.4794 27.1373C19.5903 27.4262 19.7713 27.7464 20.0348 27.9668C20.4646 28.3311 21.0777 28.4379 21.6365 28.287C22.1523 28.1107 22.6116 27.6641 22.753 27.1222L21.5585 25.0211L24.2924 25.0223V25.7822L24.8874 25.7892L24.1703 26.7521L24.9677 27.6385L25.7709 26.7521L25.0333 25.7927L25.6238 25.7822L25.6419 25.0211L28.3815 25.0246C28.3815 25.0246 27.5682 26.4377 27.1825 27.1222C27.2436 27.3682 27.3907 27.5828 27.5445 27.7905C27.9913 28.3242 28.679 28.4564 29.3351 28.287C29.8136 28.1362 30.3418 27.6455 30.4278 27.1222L29.1903 25.0246L30.3226 25.0211V24.6127ZM29.9674 22.6683L31.0838 22.6868C31.482 23.1961 31.8508 23.731 32.3473 24.1776C31.7829 25.0269 31.5431 26.0084 30.8927 26.8206L31.9243 26.8577C31.948 27.816 32.0645 28.7279 32.5622 29.4763L26.5321 29.5006V33.9999H32.0532C31.7761 38.1278 28.7333 42.1665 24.9496 43.6643C21.1954 42.1433 18.1764 38.1023 17.906 33.9999H23.409V29.5006L17.4219 29.4763C17.9003 28.721 17.9739 27.7835 18.0112 26.8391H19.0225V26.7765C18.3969 26.0026 18.1639 25.0652 17.656 24.2472C17.6187 24.2217 17.5938 24.1649 17.63 24.1336C18.1401 23.6939 18.4591 23.159 18.8573 22.6868L22.0607 22.6683C22.8265 23.021 23.581 23.4038 24.2744 23.9386C25.3716 23.3736 26.4575 22.7622 27.5196 22.1009C28.0354 21.87 28.8329 21.6983 29.3351 22.0835C29.5625 22.2343 29.7887 22.4409 29.9674 22.6683Z" fill="#155195"></path><path d="M40.678 41.5881C40.6101 42.2112 40.6101 42.9723 40.678 43.6208H40.2357C40.3827 43.1185 40.3092 42.4943 40.2979 41.9536C40.126 42.3806 40.0151 42.84 39.9167 43.2937H39.5977C39.5615 42.8725 39.4382 42.4826 39.3285 42.0847L39.3036 43.4874C39.3285 43.5385 39.3466 43.5883 39.3704 43.6394C39.2177 43.6835 39.0457 43.6835 38.8862 43.709L38.9903 43.4874C39.0095 42.9352 39.0582 42.3121 38.9473 41.7842L38.8862 41.7204C39.0955 41.6578 39.3342 41.6578 39.5615 41.6323C39.6045 41.9652 39.7142 42.2808 39.7889 42.6022C39.8794 42.268 40.0343 41.9536 40.0649 41.5881" fill="#155195"></path><path d="M11.5395 42.0419L11.5485 43.6383L11.6255 43.7903C11.4535 43.8147 11.2262 43.7532 11.0361 43.7265L11.1594 43.4875C11.1651 42.897 11.2635 42.2113 11.0791 41.6764L11.6255 41.7843" fill="#155195"></path><path d="M38.4395 42.0418C38.3478 42.6903 38.6962 43.564 38.0639 43.9411C37.8682 44.0095 37.5866 44.1047 37.409 43.9225L37.28 43.7264L37.2427 42.3434L37.1567 42.1926C37.3049 42.0917 37.513 42.0418 37.7031 41.9977L37.599 42.2553L37.6171 43.6011C37.8219 43.8668 38.0515 43.5999 38.1024 43.4804C38.108 43.47 38.1261 42.1045 38.1261 42.1045L38.0221 41.9084C38.1748 41.8202 38.3716 41.8272 38.5492 41.7842" fill="#155195"></path><path d="M9.76596 41.8276L9.74788 43.293C9.91302 43.3115 10.0669 43.293 10.1721 43.1421C10.3485 42.8533 10.3677 42.3811 10.2331 42.0597C10.1404 41.8718 9.95713 41.8276 9.76596 41.8276ZM10.6573 41.9785C10.8157 42.3764 10.8213 42.8962 10.5691 43.2559C10.2569 43.7327 9.69921 43.5958 9.20264 43.6213C9.50239 43.119 9.33046 42.3811 9.34969 41.7836C9.34969 41.6827 9.26374 41.627 9.21962 41.5446C9.75352 41.5562 10.3745 41.4436 10.6573 41.9785Z" fill="#155195"></path><path d="M13.1401 42.1921L13.165 42.6897C13.0293 42.5517 12.8584 42.3371 12.6379 42.4322C12.3064 42.6457 12.3856 43.0912 12.4037 43.4439C12.4467 43.6214 12.5519 43.8024 12.7238 43.8778C12.8765 43.9416 13.0292 43.872 13.1401 43.7711L13.165 44.2502C12.7295 44.2502 12.3121 44.1377 12.0847 43.7084C11.889 43.3255 11.9071 42.7211 12.1526 42.3684C12.3245 42.1178 12.5881 42.0284 12.8709 42.1038C12.9501 42.1549 13.0428 42.1863 13.1401 42.1921Z" fill="#155195"></path><path d="M37.0097 42.6017V42.69C36.8683 42.589 36.6963 42.6134 36.5436 42.6702L36.5007 42.7329C36.5369 43.2747 36.4147 43.8838 36.6047 44.356L36.0833 44.6135C36.2371 44.0914 36.1387 43.4638 36.1636 42.8848C35.9849 42.8906 35.8129 43.1424 35.7032 43.2932C35.6817 43.1204 35.7021 42.9394 35.7021 42.8094C36.1002 42.6366 36.4984 42.4602 36.9056 42.2549C37.0029 42.3071 36.9724 42.4892 37.0097 42.6017Z" fill="#155195"></path><path d="M14.6185 43.4697C14.5325 43.2678 14.3243 43.0914 14.1332 43.0172C14.1219 43.5822 14.0483 44.2377 14.1954 44.7656L13.6921 44.5266C13.8459 44.0092 13.7475 43.3885 13.7723 42.8223C13.6671 42.7457 13.4964 42.69 13.3731 42.7782L13.3301 42.8223L13.3731 42.3687L14.5947 42.9476" fill="#155195"></path><path d="M35.488 43.4443C35.4201 43.3248 35.255 43.3562 35.1521 43.3817C34.8987 43.507 34.8071 43.7715 34.7946 44.0291C34.7822 44.318 34.8071 44.6324 35.0718 44.7658C35.2799 44.8099 35.4201 44.6324 35.531 44.4816V44.9422C35.3285 45.0292 35.1261 45.18 34.8817 45.093C34.5865 44.9665 34.4824 44.651 34.4146 44.3737C34.3716 43.8342 34.5865 43.3307 35.0469 43.0801C35.1815 43.0035 35.3715 43.0603 35.488 42.9478" fill="#155195"></path><path d="M15.3362 43.3627L15.2502 43.5321L15.2683 44.9162C15.3181 45.0473 15.4527 45.1367 15.5692 45.1738C15.6676 45.1738 15.7784 45.1123 15.7965 45.0044C15.7717 44.5136 15.8701 43.973 15.7174 43.5321L16.1777 43.7711C16.042 44.0635 16.1076 44.4463 16.1031 44.7967C16.1019 45.8095 15.3486 45.4824 15.1642 45.3257C15.0048 45.1622 14.8701 44.9847 14.895 44.7468C14.8577 44.1807 14.981 43.5506 14.7842 43.0599C14.9618 43.1678 15.1586 43.2363 15.3362 43.3627Z" fill="#155195"></path><path d="M17.2139 44.1807C17.232 44.545 17.3236 44.8791 17.4039 45.219C17.5317 44.9348 17.6618 44.6598 17.698 44.3303C17.8756 44.3617 18.1154 44.357 18.3054 44.4185L18.2263 44.7214L18.2443 46.269L18.2874 46.4686C18.1516 46.5208 17.9627 46.4326 17.8202 46.3874C17.784 46.3502 17.8881 46.2818 17.8881 46.2134C17.9186 45.747 17.9186 45.2376 17.8881 44.7654C17.741 45.168 17.5453 45.552 17.4401 45.9801L17.189 45.892C17.1585 45.4012 16.9865 44.9348 16.8757 44.4637C16.8519 44.9905 16.827 45.5706 16.8949 46.0869C16.7807 46.0324 16.6664 45.9987 16.5714 45.957C16.5352 45.9396 16.5035 45.9268 16.5035 45.9268C16.5035 45.9268 16.5103 45.878 16.5148 45.8224C16.6246 45.2817 16.5759 44.6459 16.5567 44.0728L16.4956 43.9034" fill="#155195"></path><path d="M33.8009 44.9159L33.6109 44.2244L33.4887 45.0679L33.8009 44.9159ZM33.8869 43.7719C33.9604 44.3311 34.1448 44.8416 34.3292 45.3498L34.4333 45.4577C34.267 45.5389 34.1143 45.6468 33.9299 45.6978C33.9797 45.5389 33.9367 45.3637 33.8869 45.2187C33.7274 45.25 33.5317 45.3196 33.3835 45.4391C33.3473 45.6039 33.3541 45.8034 33.4028 45.9542C33.224 46.0111 33.0645 46.1063 32.8745 46.1306C33.1505 45.5389 33.2365 44.866 33.3406 44.2059L33.3168 44.0098C33.5068 43.9286 33.6912 43.8276 33.8869 43.7719Z" fill="#155195"></path><path d="M32.0955 44.596L32.1136 45.3073C32.2063 45.2817 32.3104 45.2817 32.3726 45.175C32.4518 45.0427 32.4755 44.8594 32.4337 44.7028C32.4088 44.5323 32.2007 44.5136 32.0955 44.596ZM32.8318 44.5508C32.9008 44.7712 32.9054 45.081 32.7527 45.2631C32.5864 45.4952 32.3104 45.5323 32.0774 45.6333C32.0717 45.885 32.0649 46.131 32.1577 46.3456C32.0287 46.4523 31.7833 46.3769 31.6113 46.4326C31.8387 45.892 31.7154 45.1808 31.7154 44.5705L31.6294 44.3999C32.0468 44.4185 32.5739 44.0472 32.8318 44.5508Z" fill="#155195"></path><path d="M20.8142 44.9418V47.8992C21.0721 48.0825 21.3719 48.1626 21.6614 48.2693C23.3163 48.68 25.1883 48.767 26.9484 48.528C27.7153 48.3958 28.5015 48.3204 29.1451 47.8806L29.1202 44.9593C28.5682 45.1867 27.9675 45.3131 27.3726 45.4396C25.2121 45.7215 22.753 45.7215 20.8142 44.9418ZM43.4801 41.481C43.0649 42.4196 43.212 43.7156 43.7945 44.5265C44.3035 44.6275 44.8499 44.6959 45.4007 44.6321V41.6318C44.7198 41.6771 44.1067 41.5634 43.4801 41.481ZM6.52107 41.4567C5.90686 41.539 5.31302 41.6574 4.64451 41.6075V44.6136C5.18293 44.6774 5.72361 44.6078 6.22697 44.508C6.72919 43.7457 6.91359 42.7212 6.66813 41.7838L6.52107 41.4567ZM36.5246 41.9346L33.6346 43.3629C32.7828 43.733 31.8564 43.9789 30.8508 43.9035V46.9304C31.6969 47.0174 32.4695 46.8098 33.1935 46.5395L36.0394 45.1379C37.157 44.6135 38.3469 44.2875 39.6229 44.1611C40.0584 44.0729 40.6103 44.2736 40.9723 43.9847C41.3094 43.7956 41.4508 43.444 41.5187 43.0983C41.5616 42.4764 41.6352 41.7328 41.4316 41.155C39.6647 40.9601 38.0155 41.3174 36.5246 41.9346ZM8.56958 41.155C8.35466 41.7397 8.4282 42.5206 8.50285 43.1424C8.56393 43.5462 8.8829 43.9917 9.28107 44.0984C10.9993 44.1251 12.5874 44.4453 14.0296 45.1553C15.6607 45.8851 17.1459 47.1254 19.1084 46.9049V43.9035C18.1515 43.9604 17.2443 43.7654 16.4276 43.4058C14.0115 42.1551 11.601 40.7652 8.56958 41.155ZM17.3371 26.7338C17.4457 27.8081 17.164 28.7722 16.5396 29.5646C16.655 29.7468 16.8077 29.9092 16.9559 30.0868C17.2443 30.067 17.5689 30.1435 17.7782 29.9289C18.0124 29.8036 18.1572 29.9023 18.3031 30.0902C18.4558 30.1355 18.5587 30.1308 18.7714 30.0426C18.777 30.1795 18.6854 30.2944 18.5813 30.3628C18.4784 30.4058 18.4433 30.4151 18.337 30.4162C18.2409 30.5868 18.0723 30.7782 17.8201 30.6645C17.7115 30.5369 17.5316 30.5833 17.4038 30.603L17.3789 30.6204C17.6855 30.8733 17.9558 31.2063 18.3302 31.2945C18.4716 31.219 18.6605 31.2191 18.8144 31.2759C19.053 31.3316 18.9433 31.6541 19.1514 31.7284L19.4218 31.7052C19.2736 31.9871 18.9433 31.9047 18.7284 32.0741C18.3121 32.1495 18.1458 31.7353 17.802 31.6414L17.3608 31.2945C17.3914 31.711 17.5927 32.1124 17.845 32.4639C17.9739 32.5591 18.1515 32.5278 18.2623 32.6589C18.4343 32.7471 18.2623 33.0754 18.5383 33.0243H18.8336C18.6854 33.3341 18.3178 33.1937 18.1153 33.4153C17.9185 33.4722 17.716 33.4083 17.5689 33.283C17.4581 33.131 17.44 32.9361 17.4219 32.7412C17.0045 32.2505 16.7896 31.6715 16.6188 31.0798C16.5532 31.1564 16.491 31.2504 16.534 31.3153C16.5962 31.4105 16.7025 31.6449 16.5317 31.8131C16.4751 31.9001 16.5317 32.0811 16.5815 32.1809C16.4231 32.1206 16.3541 32.0486 16.224 31.921C16.0973 31.885 15.8066 31.6889 16.0905 31.2759C16.1335 30.9743 16.2693 30.7225 16.3666 30.451C16.336 30.2886 16.1957 30.1679 16.0724 30.0426C14.956 31.0369 13.6427 31.5532 12.3612 32.1379C12.0422 32.3189 11.6859 32.616 11.6248 33C11.6429 33.1891 11.7345 33.3585 11.9008 33.4594C12.9629 33.811 13.938 32.7227 14.956 33.4153C15.7467 33.9177 15.404 35.1139 16.3914 35.3842C15.9186 35.535 15.3791 35.8819 15.2071 36.3982C15.0725 37.0015 15.0612 37.7684 15.4594 38.2603C16.2568 39.185 17.9863 38.2916 18.3483 39.7697C18.3675 40.047 18.354 40.3115 18.1153 40.4879C18.1402 40.8591 17.9671 41.2049 17.63 41.3754L17.4038 41.481C17.4581 41.2931 17.569 41.0726 17.4649 40.8707C17.3982 40.7002 17.2568 40.5807 17.1029 40.4879C17.0667 40.7269 17.0294 40.9728 16.8948 41.1805C16.7228 41.4241 16.4831 41.5007 16.2195 41.5251C16.3428 41.3243 16.3428 41.0471 16.3055 40.8081C16.2625 40.6886 16.1765 40.5494 16.0544 40.5053C15.8881 40.909 15.5193 41.2931 15.085 41.3302C15.2196 41.1724 15.2626 40.9531 15.2071 40.7466C15.1698 40.3173 14.6619 40.4624 14.5137 40.0969C14.2196 39.5307 13.6609 39.1652 13.0365 39.2105C13.3611 38.6501 13.8882 38.1222 13.6484 37.3727C13.5692 36.9945 13.2084 36.6302 12.8453 36.5478L12.2379 36.5293C12.1214 35.9643 11.747 35.3215 11.1588 35.144C11.0909 35.1649 11.0298 35.0837 10.9687 35.144C11.5762 35.9573 11.6191 37.2845 11.1837 38.1895C10.7844 39.3346 9.53898 39.569 8.88292 40.5238C11.851 40.3486 14.2321 41.626 16.6188 42.8848C17.1278 43.0913 17.6481 43.2677 18.2261 43.3187C18.2816 43.1053 18.1696 42.7967 18.4343 42.6899C19.4218 42.3686 20.4466 42.7282 21.1954 43.3814C21.5936 43.6448 21.3979 44.161 21.4465 44.5706C21.8447 44.7782 22.3175 44.7899 22.753 44.8966C24.5379 45.1553 26.4699 45.0927 28.1757 44.7029C28.2866 44.6704 28.4019 44.6587 28.4879 44.5706C28.532 44.2179 28.3838 43.784 28.618 43.5125C29.403 42.7711 30.4821 42.3755 31.5488 42.7154C31.7705 42.8407 31.7026 43.0983 31.715 43.3187C33.3405 43.1865 34.6413 42.1237 36.1016 41.5251C37.6298 40.8591 39.2541 40.4554 41.0956 40.568L41.1194 40.5493C40.4135 39.5562 38.9849 39.2174 38.6965 37.932C38.4205 37.0328 38.4329 35.9004 39.0098 35.144C38.6467 35.1649 38.2791 35.3911 38.0642 35.7484C37.8866 35.9886 37.8311 36.2717 37.7452 36.5478C37.2667 36.498 36.7633 36.5734 36.4828 37.027C36.2238 37.4667 36.1819 38.0781 36.4828 38.5179L36.9409 39.229C36.2611 39.1548 35.7147 39.6119 35.3833 40.1851C35.1876 40.4925 34.6357 40.424 34.7329 40.9148C34.7454 41.0598 34.7635 41.2049 34.8811 41.3058C34.6232 41.3174 34.3404 41.155 34.1391 40.9148C33.9977 40.8081 34.0214 40.5436 33.8438 40.5238C33.5678 40.7199 33.6233 41.1097 33.6787 41.3951L33.7398 41.5007C33.5679 41.5448 33.371 41.438 33.2115 41.3499C32.9661 41.1352 32.8993 40.8394 32.8745 40.5238C32.7455 40.4925 32.6166 40.6573 32.5374 40.7652C32.4514 40.9218 32.4333 41.1283 32.4752 41.3058L32.5623 41.481C32.2433 41.387 31.9062 41.1167 31.844 40.7652C31.844 40.67 31.8078 40.5876 31.8202 40.4879C31.5929 40.2988 31.5555 40.0087 31.611 39.7268C32.1132 38.0398 34.6481 39.4936 34.8132 37.4795C34.9297 36.7822 34.7884 36.1151 34.2058 35.7055C34.009 35.5663 33.7884 35.492 33.5746 35.4039C34.5372 35.0697 34.2183 33.7854 35.1515 33.3271C36.2181 32.8109 37.114 33.8805 38.1445 33.4339C38.3345 33.3016 38.4024 33.087 38.3345 32.8746C37.7576 31.8676 36.5982 31.8421 35.7453 31.2945C35.1141 30.9174 34.4513 30.603 33.8868 30.0623C33.7579 30.1435 33.6663 30.2816 33.5927 30.4058C33.6414 30.7411 33.8257 31.0114 33.8868 31.3386C34.0757 31.5822 33.9604 31.7783 33.7805 31.8618C33.6753 31.9709 33.526 32.1356 33.3835 32.1809C33.4016 32.0811 33.4694 31.9987 33.4457 31.8804C33.3043 31.7783 33.3043 31.5961 33.3405 31.4453C33.4457 31.3513 33.3654 31.2376 33.3597 31.1239L33.3156 31.0798C33.1686 31.711 32.8993 32.283 32.4944 32.8108C32.5125 33 32.4944 33.1821 32.3473 33.3086C32.2127 33.4536 31.9854 33.4536 31.801 33.4153C31.6053 33.2018 31.249 33.3202 31.102 33.0243C31.2615 33 31.4515 33.0812 31.568 32.9617C31.5612 32.7923 31.672 32.6345 31.8202 32.573C31.887 32.5022 31.9967 32.5533 32.077 32.5022C32.3406 32.1437 32.5125 31.7469 32.5985 31.313H32.5374C32.2365 31.6274 31.8632 31.7365 31.5488 32.0161C31.3531 32.1368 31.1461 32.0938 30.9956 31.9465C30.9277 31.9674 30.6099 31.9163 30.5126 31.7052C30.6291 31.7226 30.8067 31.7737 30.8927 31.6588C30.8802 31.5091 30.9787 31.3838 31.0838 31.2945C31.2535 31.1958 31.4153 31.2237 31.5442 31.3119C31.663 31.342 31.7795 31.3166 31.887 31.1866C32.12 31.0242 32.3598 30.8234 32.5623 30.6204C32.2365 30.3895 32.0091 30.8988 31.715 30.603L31.5861 30.4325C31.4209 30.4139 31.2558 30.3326 31.1687 30.1679C31.1563 30.1366 31.1382 30.1064 31.1449 30.0623C31.292 30.0751 31.4277 30.1238 31.5861 30.1064C31.6777 29.973 31.8078 29.9289 31.9481 29.9092C32.12 29.9162 32.267 29.9731 32.3903 30.0868C32.6358 30.0183 32.9174 30.2375 33.0894 29.973L33.4016 29.5832C32.7885 28.7908 32.482 27.7965 32.6234 26.7523C33.1448 26.7581 33.6595 26.7581 34.1391 26.67C34.0531 27.4125 34.0588 28.3058 33.9728 29.0484C33.9728 29.0484 35.1797 28.7037 36.6038 28.0738C36.7271 29.1817 37.2361 30.1192 37.6411 31.1007C38.2055 30.5264 38.8684 30.0925 39.3706 29.4579C40.4577 30.741 41.6646 32.0045 42.1498 33.5661C42.272 34.5419 42.2901 35.6986 43.3093 36.158C43.4755 36.2462 43.6905 36.2659 43.8805 36.2276C44.0083 36.1766 44.0943 36.0443 44.1316 35.9202C44.2232 35.0953 43.6531 34.4966 43.4201 33.7796C43.0457 33.1264 42.9224 32.037 43.4371 31.4024C44.0581 30.5717 45.291 31.269 45.9233 30.4708C46.0693 30.3199 46.1495 30.1308 46.2412 29.9545C46.3339 30.3571 46.1744 30.7028 46.1371 31.0798C46.3396 31.0172 46.5613 30.8791 46.7683 30.7782C46.9662 30.6413 47.1676 30.4324 47.2965 30.2375C46.904 31.219 47.0206 32.7413 45.6949 33C45.3216 33.0441 44.9223 33.0244 44.5784 32.9362C44.4257 32.9362 44.2786 33 44.1983 33.1311V33.3898C44.549 34.5164 45.6643 35.6359 44.9347 36.8948C44.5908 37.3217 44.0581 37.4284 43.5423 37.3031C43.1124 37.1848 42.7267 36.9017 42.4077 36.5478L42.3399 36.7625C42.2177 38.222 42.3648 39.8903 43.6905 40.6398C43.8058 40.6572 43.9042 40.7141 44.0264 40.7199L43.8375 40.9404L43.8805 40.9844C44.5298 41.1167 45.2413 41.09 45.9041 41.003L45.9233 45.1379C44.9098 45.2934 43.8613 45.1379 42.91 44.9418C42.1928 45.3572 41.9349 46.2134 41.1816 46.5395C41.0583 46.6531 41.0639 46.8423 41.0956 46.9919C41.1318 47.1056 41.194 47.2066 41.2845 47.2936C40.9474 47.2565 40.6104 47.0233 40.4622 46.6891C40.4203 46.5836 40.383 46.4768 40.34 46.3631C40.1127 46.4641 40.0086 46.7286 40.0029 46.9734L40.021 47.188C39.6466 47.0488 39.4204 46.6149 39.3899 46.2134C39.1682 46.2506 39.0584 46.5325 38.9906 46.7355L38.9668 46.9304C38.6342 46.4965 38.5245 45.6218 38.8198 45.0672L38.9906 44.8282C38.4872 44.8282 38.0155 45.0161 37.5359 45.1379C35.0949 45.79 33.1256 48.0048 30.3226 47.4015L30.3045 46.3005C30.0896 46.2877 29.869 46.3875 29.6722 46.4965V48.1382C28.7888 48.9445 27.5502 48.9561 26.4032 49.1568C24.3354 49.2636 22.1524 49.2764 20.4342 48.3146L20.2871 48.1625V46.5151C20.1333 46.3759 19.9003 46.3504 19.6978 46.2819H19.6548L19.6355 47.3829L19.5937 47.427C18.4648 47.6277 17.3665 47.3829 16.4095 46.9734L13.4595 45.5011C12.6802 45.175 11.851 44.9094 11.0117 44.8096C11.428 45.3433 11.3986 46.2309 11.1158 46.8226L11.0366 46.9304C10.98 46.6462 10.919 46.3457 10.6565 46.1682C10.5581 46.3875 10.5208 46.6717 10.3613 46.8864C10.2754 47.0233 10.134 47.1115 9.99935 47.1695C9.9937 46.8922 9.98124 46.4768 9.66113 46.3457C9.56951 46.7529 9.23242 47.1694 8.82182 47.2762H8.71663C8.89535 47.0987 8.98698 46.8295 8.88292 46.5836C8.12166 46.2506 7.80379 45.3317 7.09117 44.9164C6.14666 45.1124 5.11054 45.2749 4.09817 45.1124V41.003C4.76102 41.1098 5.5268 41.09 6.16476 40.9404L6.18399 40.9148L5.97587 40.7002C6.71111 40.6398 7.26311 39.8335 7.47237 39.185C7.74158 38.4053 7.75968 37.4041 7.61828 36.5478C7.41694 36.6871 7.2518 36.889 7.04819 37.027C6.57537 37.36 5.85258 37.4667 5.34243 37.1337C4.97481 36.8449 4.81644 36.4365 4.83454 35.9643C4.91938 34.9816 5.52114 34.2135 5.82768 33.3271C5.85822 33.1705 5.7915 33.0324 5.65577 32.9617C4.90695 32.993 4.02464 33.1636 3.48396 32.4837C2.95119 31.8479 3.07336 30.9302 2.72949 30.212C3.00549 30.6645 3.45342 30.8733 3.86516 31.0798C3.85272 30.7155 3.69324 30.3141 3.7792 29.9289C3.91947 30.3199 4.2814 30.7411 4.68635 30.8165C5.37974 30.9673 6.22019 30.7979 6.66813 31.5091C7.52101 33.0626 6.02452 34.2588 5.87069 35.7055C5.86503 35.8575 5.90689 35.9828 5.99285 36.0954C6.11615 36.2334 6.30616 36.2787 6.4781 36.2276C8.09789 35.781 7.51423 33.9049 8.12165 32.7854C8.75962 31.5892 9.67471 30.5148 10.5887 29.4324C11.1214 30.0229 11.747 30.5519 12.3431 31.0798C12.7288 30.0995 13.2751 29.1875 13.3543 28.0738C14.1891 28.4624 15.0963 28.6899 15.9435 29.0484C15.9311 28.2675 15.913 27.4311 15.7965 26.67C16.2749 26.7825 16.8269 26.7082 17.3371 26.7338Z" fill="#155195"></path><path d="M22.1029 45.8665C22.1334 46.2053 22.1945 46.5325 22.2929 46.8423C22.3856 46.5592 22.4524 46.2633 22.4829 45.9536C22.6797 45.9861 22.9433 45.9802 23.1582 46.0417L23.0722 46.2819C23.0903 46.8725 23.0168 47.5036 23.1344 48.05L22.6729 47.9874C22.7838 47.5279 22.7284 46.9235 22.7171 46.4072C22.5938 46.797 22.4343 47.1752 22.441 47.6219C22.3551 47.6335 22.2194 47.6277 22.1209 47.5964C22.0961 47.1312 21.9434 46.7216 21.8506 46.2819C21.802 46.7599 21.7533 47.3458 21.8947 47.7902L21.4468 47.6857C21.6368 47.2066 21.5384 46.5777 21.5328 46.0417C21.5079 45.9362 21.5079 45.8097 21.4468 45.7157" fill="#155195"></path><path d="M28.47 45.7408C28.3229 46.2756 28.3964 46.9369 28.4089 47.5147C28.4394 47.5599 28.4213 47.6342 28.4462 47.6853C28.3105 47.7607 28.1634 47.8036 28.0039 47.8176C28.0526 47.3071 28.0955 46.7792 28.0469 46.2559C27.9428 46.7026 27.7404 47.1121 27.7336 47.5959C27.6307 47.6156 27.5435 47.6597 27.4327 47.6655C27.4033 47.2119 27.2743 46.7966 27.1386 46.3882C27.1329 46.9057 27.0594 47.5078 27.2065 47.9881C27.0526 48.0496 26.8818 48.0438 26.7212 48.074C26.9124 47.5461 26.7891 46.8801 26.8253 46.2814L26.7212 46.0424C26.9361 46.0111 27.1691 46.0192 27.3716 45.9543C27.4327 46.0552 27.427 46.213 27.4587 46.3452L27.6046 46.8871C27.6725 46.5518 27.8082 46.2501 27.8139 45.8916C28.0412 45.8545 28.2426 45.7663 28.47 45.7408Z" fill="#155195"></path><path d="M24.612 46.496C24.4457 46.3626 24.2014 46.2954 23.9978 46.3882V46.93C24.1392 46.9497 24.3485 46.9996 24.465 46.8871L24.4831 47.2942C24.3428 47.2246 24.2014 47.1562 24.0227 47.1875L23.9978 47.8801C24.1641 47.9428 24.4039 47.9428 24.569 47.8801L24.698 47.8175V48.183C24.2874 48.2004 23.9005 48.1505 23.5137 48.0936C23.6177 47.9103 23.6618 47.7038 23.6426 47.4706C23.6064 47.0054 23.7286 46.4775 23.5374 46.0865L24.612 46.1491" fill="#155195"></path><path d="M26.4032 46.0867C26.2007 46.596 26.3478 47.2515 26.2742 47.8177C26.2245 47.9616 26.1023 48.0939 25.9609 48.1635C25.2574 48.3584 25.0775 47.8607 25.0775 47.8607C25.0108 47.2945 25.1329 46.6529 24.9678 46.1308H25.4949C25.3478 46.6088 25.4214 47.2063 25.4338 47.7284C25.4768 47.8421 25.5933 47.8664 25.6861 47.8989C25.8195 47.9047 25.9372 47.8305 26.0039 47.704C26.0288 47.2249 26.0537 46.6842 25.979 46.2132L25.918 46.1308C26.048 46.0809 26.2562 46.1308 26.4032 46.0867Z" fill="#155195"></path><path d="M61.6011 12.5947H65.2366V23.2883H70.1525V26.1423H61.6011" fill="#555253"></path><path d="M76.3487 23.8591C78.0183 23.8591 78.2037 22.1466 78.2037 20.4145C78.2037 18.6649 78.0183 16.9524 76.3487 16.9524C74.79 16.9524 74.4936 18.6649 74.4936 20.4145C74.4936 22.1466 74.79 23.8591 76.3487 23.8591ZM76.3487 14.4023C80.0407 14.4023 81.7657 17.0847 81.7657 20.4145C81.7657 23.7257 80.0407 26.4092 76.3487 26.4092C72.6566 26.4092 70.9316 23.7257 70.9316 20.4145C70.9316 17.0847 72.6566 14.4023 76.3487 14.4023Z" fill="#555253"></path><path d="M90.0204 19.0832C90.0204 18.1121 89.7975 17.3325 88.9446 17.3325C88.2761 17.3325 87.5714 18.017 87.0703 18.4939V26.1418H83.583V14.6687H87.0703V16.2094C88.3135 15.1444 89.2229 14.4019 90.7443 14.4019C93.5077 14.4019 93.5076 16.6863 93.5076 18.0368V26.1418H90.0204" fill="#555253"></path><path d="M102.394 17.9984C101.912 17.4659 101.484 17.0668 100.779 17.0668C99.1472 17.0668 99.0725 19.1215 99.0725 20.5485C99.0725 21.595 99.1834 23.7449 100.742 23.7449C101.502 23.7449 101.93 23.3075 102.394 22.8689V17.9984ZM105.881 26.1418H102.394V24.9248C101.17 26.1999 100.186 26.4087 99.3135 26.4087C96.1237 26.4087 95.5117 23.1357 95.5117 20.2434C95.5117 17.6747 96.1237 14.4018 99.4062 14.4018C100.779 14.4018 101.502 15.0492 102.394 15.8288V11.3574H105.881" fill="#555253"></path><path d="M113.115 23.8591C114.785 23.8591 114.97 22.1466 114.97 20.4145C114.97 18.6649 114.785 16.9524 113.115 16.9524C111.556 16.9524 111.26 18.6649 111.26 20.4145C111.26 22.1466 111.556 23.8591 113.115 23.8591ZM113.115 14.4023C116.807 14.4023 118.532 17.0847 118.532 20.4145C118.532 23.7257 116.807 26.4092 113.115 26.4092C109.423 26.4092 107.699 23.7257 107.699 20.4145C107.699 17.0847 109.423 14.4023 113.115 14.4023Z" fill="#555253"></path><path d="M126.787 19.0832C126.787 18.1121 126.565 17.3325 125.711 17.3325C125.043 17.3325 124.339 18.017 123.837 18.4939V26.1418H120.35V14.6687H123.837V16.2094C125.081 15.1444 125.989 14.4019 127.511 14.4019C130.275 14.4019 130.275 16.6863 130.275 18.0368V26.1418H126.787" fill="#555253"></path><path d="M62.6588 41.9538C62.8997 42.9052 63.6417 44.0469 65.4041 44.0469C67.0736 44.0469 67.9638 42.8298 67.9638 41.6882C67.9638 40.2228 67.0555 39.7657 66.5725 39.5371L63.3827 38.015C62.1396 37.4256 61.4157 36.4545 61.4157 35.0472C61.4157 32.4019 63.661 31.3369 65.5523 31.3369C67.4266 31.3369 68.966 32.0029 69.5972 33.8105L67.9276 34.3813C67.612 33.1062 66.499 32.7442 65.5523 32.7442C63.92 32.7442 63.2334 33.6968 63.2334 34.9335C63.2334 36.2643 64.1247 36.6831 64.9776 37.0637L67.3519 38.1299C68.1686 38.4907 69.7827 39.3098 69.7827 41.6499C69.7827 42.925 69.0215 45.4553 65.2559 45.4553C62.3624 45.4553 61.2856 43.5909 61.0073 42.5815" fill="#555253"></path><path d="M72.5274 32.0406L74.1608 31.3364V34.8182H76.7387V36.0747H74.1608V42.2771C74.1608 43.2099 74.2536 44.0661 75.4594 44.0661C75.9786 44.0661 76.2557 43.971 76.8314 43.7424V45.0743C76.2195 45.3214 75.5702 45.3979 75.292 45.3979C72.9358 45.3979 72.5274 43.7424 72.5274 42.487V36.0747H70.876V34.8182H72.5274" fill="#555253"></path><path d="M79.391 39.5186C79.391 41.7253 79.9848 44.0665 82.3037 44.0665C84.6225 44.0665 85.2164 41.7253 85.2164 39.5186C85.2164 37.349 84.6225 35.0286 82.3037 35.0286C79.9848 35.0286 79.391 37.349 79.391 39.5186ZM77.6841 39.5371C77.6841 36.6459 78.9453 33.6967 82.3037 33.6967C86.1993 33.6967 86.9221 37.2736 86.9221 39.5371C86.9221 42.4481 85.6609 45.3984 82.3037 45.3984C78.408 45.3984 77.6841 41.8204 77.6841 39.5371Z" fill="#555253"></path><path d="M95.085 37.1019C94.9549 36.6448 94.5103 35.0286 92.9516 35.0286C90.6328 35.0286 90.0389 37.349 90.0389 39.5186C90.0389 41.7833 90.6328 44.0666 92.6733 44.0666C93.8972 44.0666 94.732 43.324 95.1777 42.0107L96.6064 42.4864C95.9378 44.0666 95.0849 45.3984 92.6733 45.3984C89.0559 45.3984 88.332 42.049 88.332 39.5371C88.332 37.2736 89.0559 33.6956 92.9516 33.6956C94.6212 33.6956 95.7897 34.4949 96.5509 36.6448" fill="#555253"></path><path d="M100.001 30.3851V38.9288L104.23 33.9237H106.308L101.763 39.1191L106.624 45.1694H104.509L100.038 39.3847H100.001V45.1694H98.3677V30.3851" fill="#555253"></path><path d="M113.227 31.6219H121.167V33.0304H114.934V37.4437H120.851V38.8522H114.934V43.761H121.352V45.1694H113.227" fill="#555253"></path><path d="M122.688 33.9241H124.598L126.528 37.2539C126.714 37.559 126.917 37.9582 127.065 38.2819H127.103C127.251 37.9582 127.456 37.559 127.641 37.2539L129.662 33.9241H131.444L128.142 39.1764L131.722 45.1699H129.774L127.382 40.9642C127.251 40.7357 127.122 40.4503 127.065 40.2797H127.029C126.973 40.4132 126.862 40.6788 126.676 40.9642L124.097 45.1699H122.242L125.897 39.2135" fill="#555253"></path><path d="M139.272 37.1019C139.142 36.6448 138.697 35.0286 137.139 35.0286C134.82 35.0286 134.226 37.349 134.226 39.5186C134.226 41.7833 134.82 44.0666 136.861 44.0666C138.085 44.0666 138.92 43.324 139.365 42.0107L140.793 42.4864C140.125 44.0666 139.272 45.3984 136.861 45.3984C133.243 45.3984 132.52 42.049 132.52 39.5371C132.52 37.2736 133.243 33.6956 137.139 33.6956C138.809 33.6956 139.977 34.4949 140.737 36.6448" fill="#555253"></path><path d="M142.407 30.3851H144.039V35.751C144.93 34.933 146.08 33.6963 147.75 33.6963C149.438 33.6963 150.477 34.7428 150.458 36.8729V45.1694H148.825V37.482C148.825 36.3404 148.566 35.2185 147.212 35.2185C145.69 35.2185 144.707 36.3601 144.039 37.1583V45.1694H142.407" fill="#555253"></path><path d="M157.748 39.4992C155.411 39.4992 154.038 40.2603 154.038 41.9542C154.038 42.981 154.52 43.952 155.875 43.952C156.542 43.952 157.432 43.7803 158.936 42.0296V39.4992H157.748ZM152.925 36.5117C153.426 35.1613 154.241 33.6959 156.895 33.6959C160.141 33.6959 160.568 35.9606 160.568 37.9387V43.8569C160.568 44.104 160.568 44.5414 160.659 45.1691H158.936V43.2663H158.898C157.841 44.6934 156.765 45.2839 155.466 45.2839C153.203 45.2839 152.404 43.5715 152.404 42.1061C152.404 39.5375 154.334 38.2439 157.358 38.2439H158.936V37.5211C158.936 36.76 158.935 34.9524 156.801 34.9524C155.447 34.9524 154.816 35.7321 154.334 36.9503" fill="#555253"></path><path d="M163.016 33.9242H164.65V35.7503C165.539 34.9324 166.689 33.6956 168.359 33.6956C170.047 33.6956 171.086 34.7421 171.068 36.8734V45.1699H169.434V37.4825C169.434 36.3409 169.175 35.2178 167.821 35.2178C166.3 35.2178 165.317 36.3594 164.65 37.1588V45.1699H163.016" fill="#555253"></path><path d="M177.096 39.6896C178.469 39.6896 179.582 38.8519 179.582 37.1975C179.582 35.637 178.524 34.8376 177.096 34.8376C175.667 34.8376 174.61 35.637 174.61 37.1975C174.61 38.8519 175.723 39.6896 177.096 39.6896ZM175.927 43.7236C175 44.3315 174.295 45.0172 174.295 45.9871C174.295 47.3956 176.15 47.7576 177.467 47.7576C179.304 47.7576 180.305 46.9582 180.305 45.9302C180.305 45.2074 180.028 44.7132 178.544 44.3513L175.927 43.7236ZM182.217 35.0662H180.249C180.881 35.6939 181.141 36.303 181.141 37.3298C181.141 38.9285 180.119 40.8312 177.003 40.8312C176.614 40.8312 176.354 40.7929 176.15 40.7361C175.779 41.0598 175.612 41.2501 175.612 41.5923C175.612 41.9914 175.76 42.1446 177.04 42.4485L178.822 42.8674C180.453 43.2479 181.938 43.799 181.938 45.8166C181.938 48.2136 179.415 49.0129 177.189 49.0129C174.889 49.0129 172.736 48.2518 172.736 46.1971C172.736 44.7133 173.664 43.9521 174.814 43.2282C174.554 43.0959 174.054 42.8477 174.054 42.1063C174.054 41.2872 174.573 40.8881 175.148 40.4507C174.443 40.1838 173.052 39.2325 173.052 37.2927C173.052 35.3516 174.369 33.696 177.04 33.696C177.82 33.696 178.376 33.7912 178.858 33.9246H182.217" fill="#555253"></path><path d="M190.23 38.7194C190.23 36.703 189.339 35.0277 187.596 35.0277C185.889 35.0277 184.961 36.4164 184.739 38.7194H190.23ZM184.739 39.9747C184.813 43.0005 186.186 44.0655 187.652 44.0655C189.432 44.0655 190.119 42.6966 190.285 42.0875L191.714 42.6014C191.009 44.3324 189.655 45.3975 187.652 45.3975C183.756 45.3975 183.032 41.8206 183.032 39.5374C183.032 37.2727 183.756 33.6957 187.652 33.6957C190.804 33.6957 191.937 36.493 191.937 39.1383V39.9747" fill="#555253"></path></g><defs><clipPath id="clip0"><rect width="193.045" height="50.0833" fill="white" transform="translate(0.181641 0.102051)"></rect></clipPath></defs></svg>