<svg xmlns="http://www.w3.org/2000/svg" width="198" height="41" viewBox="0 0 198 41" fill="none"><g clip-path="url(#clip0)"><path d="M166.8 6.4751V34.1765H180.242C183.997 34.1765 186.172 33.5743 187.753 32.1692C189.73 30.3625 190.718 27.1508 190.718 20.3258C190.718 13.5008 189.73 10.2891 187.753 8.48245C186.172 7.0773 183.997 6.4751 180.242 6.4751H166.8ZM185.183 20.3258C185.183 26.3478 184.788 27.753 183.602 28.5559C182.811 29.1581 181.823 29.3589 179.846 29.3589H172.335V11.092H179.846C181.823 11.092 182.811 11.092 183.602 11.8949C184.788 12.8986 185.183 14.3038 185.183 20.3258ZM197.636 40.2997H158.201V0.252319H197.636V40.2997ZM125.983 11.092V6.4751H149.307V15.3074H144.364V11.092H134.876V17.7162H142.387V22.1324H134.876V29.5596H144.563V24.742H149.504V34.1765H125.984V29.5596H129.738V11.092H125.983ZM104.832 26.95C104.832 29.9611 105.028 32.1692 105.424 33.9758H110.762C110.563 32.5706 110.367 29.9611 110.367 26.5486C110.168 22.5339 108.982 21.9317 106.214 21.3295C109.377 20.7273 110.762 19.3221 110.762 14.3038C110.762 10.2891 110.168 8.68318 108.982 7.67951C108.191 6.87657 106.809 6.4751 104.633 6.4751H88.0288V34.1765H93.5635V23.3368H101.274C102.855 23.3368 103.447 23.5376 104.041 23.939C104.636 24.3405 104.832 24.9427 104.832 26.95ZM93.5635 18.9207V11.2927H102.46C103.646 11.2927 104.041 11.4935 104.238 11.6942C104.633 12.0957 105.028 12.6979 105.028 15.1067C105.028 17.5155 104.633 18.3185 104.238 18.7199C104.041 18.9207 103.646 19.1214 102.46 19.1214L93.5635 18.9207ZM118.669 40.2997H79.1353V0.252319H118.569V40.2997H118.669ZM68.8565 29.5596V34.1765H50.0765V29.5596H56.7972V11.092H50.0765V6.4751H68.855V11.092H62.1342V29.5596H68.8565ZM37.13 6.4751H31.9907L28.235 28.3552L23.8863 8.08098C23.6886 6.67583 23.0956 6.4751 21.9096 6.4751H19.1422C17.9562 6.4751 17.3632 6.87657 17.1656 8.08098L12.8169 28.3552L9.06116 6.4751H3.52646L8.8635 32.7714C9.06116 33.9758 9.4565 34.1765 10.8402 34.1765H14.5959C15.7819 34.1765 16.1772 33.9758 16.5725 32.7714L20.7236 13.7016L24.8746 32.7714C25.0723 33.9758 25.4676 34.1765 26.8513 34.1765H30.4093C31.5953 34.1765 32.1883 33.9758 32.386 32.7714L37.13 6.4751ZM39.8974 40.2997H0.36377V0.252319H39.7993V40.2997H39.8974Z" fill="black"></path></g><defs><clipPath id="clip0"><rect width="197.273" height="40.0474" fill="white" transform="translate(0.36377 0.252319)"></rect></clipPath></defs></svg>