<svg xmlns="http://www.w3.org/2000/svg" width="92" height="50" viewBox="0 0 92 50" fill="none"><g clip-path="url(#clip0)"><path d="M16.3185 0.839697V1.81847L17.2133 2.02739C18.5886 2.37654 18.7957 3.21508 19.3452 5.86949L20.7769 13.3319L16.7863 35.1296L11.3515 7.74118C10.7315 4.73618 10.5257 2.50103 12.7281 2.01165L13.7596 1.80273V0.839697H0.908691V1.81847L2.21633 2.16905C3.52396 2.5182 4.07351 3.14639 4.96828 7.26897L13.7046 49.2574H15.9592L21.8069 17.5389L28.2887 49.2574H30.0783L38.4722 8.56684C39.4361 3.88762 39.8489 2.55684 41.5018 2.12755L42.808 1.77697V0.839697H33.3671V1.81847L34.8114 2.0975C36.8757 2.51677 37.3562 3.84326 36.3924 9.22365L31.2464 35.1296L26.0328 7.74118C25.4691 5.01665 25.138 2.50103 27.4095 2.08176L28.9228 1.80273V0.823955L16.3185 0.839697ZM77.5351 0.971344V1.95012L79.2541 2.36939C80.7661 2.71854 81.3861 3.27804 81.3861 5.23415V39.1191C81.3861 42.8911 81.3861 47.8522 77.5322 47.8522C75.3312 47.8522 73.615 45.8961 73.7502 44.5682C73.8869 42.4031 77.6027 42.5419 77.8084 39.049C78.0156 36.6164 76.5008 35.4716 74.9874 35.2756C72.8555 34.9965 70.2416 36.8124 70.1711 40.4456C70.1035 45.1248 73.1302 49.3862 78.2875 49.3862C83.9943 49.3862 87.7284 45.4768 87.7284 38.0001L87.7298 5.30284C87.7298 3.34672 88.2117 2.71711 89.587 2.36939L91.0905 1.93437V0.955603L77.5351 0.971344ZM54.3555 0.673706C48.5078 0.673706 45.2063 5.63482 45.2063 12.1313C45.2063 24.2186 60.5485 28.8992 60.5485 39.7988C60.5485 44.9688 58.4151 47.8322 55.3348 47.8322C50.7271 47.8322 47.4228 42.1756 46.5985 33.162H45.567V49.0914H46.3927C47.0804 46.8019 47.9751 46.5772 48.7318 46.5772C50.0395 46.5772 51.4133 49.3676 55.4039 49.3676C61.5264 49.3676 65.5155 43.9901 65.5183 36.5806C65.5183 22.0493 50.1761 18.4862 50.1761 8.07602C50.1761 5.70064 50.8638 2.20912 54.3048 2.20912C59.2591 2.20912 61.3925 8.84587 62.2168 16.8807H63.2483V0.954173H62.4226C62.0787 2.49102 61.4601 3.18932 60.5654 3.18932C58.983 3.18932 58.1699 0.675136 54.3738 0.675136L54.3555 0.673706ZM65.431 14.3751V14.5468L65.4634 14.5268L65.4465 14.3837L65.431 14.3751Z" fill="black"></path></g><defs><clipPath id="clip0"><rect width="90.1818" height="48.7125" fill="white" transform="translate(0.908691 0.673706)"></rect></clipPath></defs></svg>